<?xml version="1.0" standalone="no"?>
<!DOCTYPE svg PUBLIC "-//W3C//DTD SVG 20010904//EN"
 "http://www.w3.org/TR/2001/REC-SVG-20010904/DTD/svg10.dtd">
<svg version="1.0" xmlns="http://www.w3.org/2000/svg"
 width="734.000000pt" height="734.000000pt" viewBox="0 0 734.000000 734.000000"
 preserveAspectRatio="xMidYMid meet">
<metadata>
Created by potrace 1.11, written by Peter Selinger 2001-2013
</metadata>
<g transform="translate(0.000000,734.000000) scale(0.100000,-0.100000)"
fill="#000000" stroke="none">
<path d="M3449 7336 c-2 -2 -40 -6 -84 -10 -226 -18 -285 -28 -615 -101 -92
-20 -305 -91 -465 -155 -272 -108 -669 -337 -870 -502 -316 -259 -513 -463
-719 -746 -208 -284 -395 -650 -512 -998 -31 -92 -96 -331 -109 -400 -21 -117
-32 -181 -41 -249 -3 -27 -8 -61 -10 -75 -19 -149 -26 -594 -11 -750 15 -149
43 -336 71 -465 35 -163 117 -437 156 -520 5 -11 22 -54 38 -95 42 -106 132
-291 198 -407 56 -98 213 -340 236 -365 7 -7 33 -39 57 -72 24 -32 75 -95 113
-140 493 -575 1145 -980 1873 -1166 83 -21 166 -41 185 -44 19 -3 46 -8 60
-11 13 -2 40 -7 60 -10 20 -3 45 -7 55 -9 47 -9 174 -23 285 -32 162 -13 557
-7 660 10 14 3 48 7 75 10 28 4 61 8 75 11 14 2 42 7 62 10 21 2 57 9 80 14
24 6 59 12 78 16 163 26 458 120 685 217 642 275 1214 749 1595 1323 29 44 61
91 70 105 69 103 204 366 277 540 84 198 193 570 218 735 5 36 10 66 21 129 2
10 6 44 9 75 4 31 8 67 11 81 16 91 22 423 11 610 -7 116 -10 155 -21 235 -15
108 -19 132 -22 150 -2 11 -9 47 -15 80 -18 102 -58 265 -95 385 -150 483
-393 923 -732 1323 -53 63 -324 333 -379 377 -30 25 -65 54 -76 64 -12 10 -76
59 -142 108 -299 223 -637 400 -1007 527 -112 38 -365 106 -438 117 -19 3 -53
9 -75 14 -53 12 -157 28 -225 35 -30 3 -71 8 -90 11 -39 5 -556 15 -561 10z"/>
</g>
</svg>
