<svg id="svg" version="1.1" xmlns="http://www.w3.org/2000/svg" xmlns:xlink="http://www.w3.org/1999/xlink" width="400" height="400" viewBox="0, 0, 400,400"><g id="svgg"><path id="path0" d="M124.000 59.018 C 123.670 59.103,120.394 59.447,116.721 59.782 C 113.048 60.117,109.268 60.567,108.321 60.781 C 107.374 60.995,104.890 61.559,102.800 62.035 C 78.038 67.674,70.588 82.347,81.594 103.800 C 85.060 110.555,92.236 120.600,101.535 131.711 C 111.427 143.533,117.558 151.912,118.938 155.497 C 119.914 158.033,118.736 160.662,110.986 173.239 C 93.323 201.902,89.513 216.839,96.508 230.000 C 101.746 239.856,109.516 244.859,128.272 250.452 C 131.242 251.338,141.406 252.959,151.000 254.078 C 156.410 254.709,189.429 254.703,195.800 254.069 C 212.985 252.362,224.193 250.526,238.000 247.158 C 240.750 246.487,244.080 245.677,245.400 245.358 C 246.720 245.039,248.160 244.620,248.600 244.425 C 249.040 244.231,251.020 243.589,253.000 243.000 C 254.980 242.410,257.167 241.674,257.860 241.364 C 258.554 241.054,259.326 240.800,259.576 240.800 C 262.768 240.800,286.836 229.066,293.452 224.285 C 327.957 199.347,332.663 168.381,307.075 134.647 C 297.116 121.518,281.910 108.025,265.600 97.843 C 262.850 96.126,260.144 94.403,259.588 94.014 C 259.031 93.624,256.961 92.440,254.988 91.383 C 253.014 90.325,250.590 88.989,249.600 88.413 C 246.669 86.709,236.565 81.823,231.400 79.612 C 228.760 78.482,226.240 77.396,225.800 77.199 C 221.580 75.302,206.385 70.131,198.400 67.874 C 188.517 65.081,173.860 61.909,168.400 61.383 C 166.970 61.245,165.260 60.972,164.600 60.776 C 160.829 59.657,127.170 58.199,124.000 59.018 M152.200 70.598 C 156.380 70.928,160.182 71.287,160.649 71.394 C 161.116 71.502,163.546 71.866,166.049 72.204 C 168.552 72.542,171.410 72.990,172.400 73.198 C 180.502 74.903,182.716 75.388,186.400 76.261 C 188.710 76.808,191.140 77.417,191.800 77.613 C 192.460 77.810,194.710 78.459,196.800 79.056 C 211.704 83.315,226.688 89.232,240.400 96.272 C 244.470 98.362,248.520 100.497,249.400 101.015 C 250.280 101.534,251.360 102.145,251.800 102.373 C 254.148 103.587,262.407 108.825,266.566 111.738 C 301.727 136.366,318.260 165.567,309.968 188.400 C 304.716 202.860,288.903 216.561,266.400 226.148 C 264.970 226.758,263.440 227.419,263.000 227.619 C 261.386 228.350,252.514 231.499,249.600 232.374 C 247.950 232.870,246.240 233.434,245.800 233.627 C 245.360 233.820,243.920 234.239,242.600 234.557 C 241.280 234.875,238.760 235.528,237.000 236.008 C 228.962 238.200,216.307 240.554,205.861 241.801 C 203.035 242.138,199.525 242.580,198.061 242.783 C 183.508 244.805,150.215 243.822,137.100 240.984 C 130.135 239.477,128.368 239.036,125.200 238.010 C 98.748 229.447,97.820 215.939,121.078 178.000 C 131.221 161.455,132.167 157.684,128.279 149.292 C 126.519 145.492,118.044 133.519,115.190 130.800 C 115.075 130.690,113.372 128.620,111.406 126.200 C 109.441 123.780,107.735 121.710,107.616 121.600 C 107.497 121.490,106.756 120.590,105.969 119.600 C 76.829 82.942,81.226 73.361,128.800 69.851 C 132.419 69.584,144.089 69.957,152.200 70.598 " stroke="none" fill="#06b3f2" fill-rule="evenodd"></path><path id="path1" d="M182.367 152.163 C 182.275 152.253,180.423 152.537,178.250 152.796 C 158.810 155.108,141.328 167.233,127.781 187.800 C 125.786 190.829,125.661 191.037,124.153 193.863 C 123.467 195.148,122.356 197.214,121.683 198.454 C 120.190 201.205,117.208 208.071,115.974 211.600 C 115.474 213.030,114.916 214.398,114.733 214.640 C 112.541 217.548,114.917 222.400,119.943 225.280 C 122.345 226.656,122.482 226.594,123.227 223.800 C 128.612 203.610,141.975 183.048,156.358 172.822 C 185.154 152.349,218.464 164.115,250.126 205.942 C 253.539 210.451,257.396 216.053,258.359 217.900 C 259.024 219.175,259.083 219.159,267.278 215.470 L 269.157 214.625 268.299 213.212 C 253.485 188.817,230.816 166.594,212.200 158.216 C 210.880 157.622,209.440 156.975,209.000 156.778 C 205.081 155.027,199.801 153.630,193.800 152.758 C 189.104 152.075,182.792 151.747,182.367 152.163 M279.503 242.793 C 277.800 243.642,275.775 244.544,275.003 244.799 C 273.246 245.379,273.240 245.284,275.393 250.741 C 285.774 277.049,288.938 300.764,284.380 318.086 C 280.940 331.160,273.157 333.462,260.400 325.180 C 254.542 321.377,251.616 319.323,248.267 316.664 C 243.001 312.483,237.015 307.493,234.800 305.438 C 214.782 286.865,202.202 277.992,195.898 278.003 C 193.103 278.007,181.010 281.336,177.000 283.205 C 176.090 283.629,174.937 284.033,166.700 286.811 C 163.455 287.905,160.528 288.800,160.195 288.800 C 159.862 288.800,159.277 288.974,158.895 289.186 C 158.513 289.398,156.760 289.867,155.000 290.227 C 153.240 290.588,150.990 291.058,150.000 291.272 C 146.347 292.064,136.878 291.800,134.000 290.826 C 124.634 287.656,119.896 279.204,118.740 263.600 L 118.280 257.400 113.276 255.400 C 110.523 254.300,108.120 253.340,107.935 253.267 C 107.751 253.193,107.603 254.903,107.606 257.067 C 107.651 284.740,118.051 300.473,137.584 302.416 C 141.841 302.839,151.344 302.374,153.295 301.647 C 153.793 301.461,155.100 301.180,156.200 301.022 C 158.882 300.637,166.504 298.404,173.600 295.924 C 195.335 288.329,195.227 288.357,197.911 289.646 C 200.827 291.046,208.954 297.101,214.043 301.665 C 214.617 302.179,216.147 303.527,217.443 304.661 C 218.739 305.795,220.262 307.145,220.826 307.661 C 221.390 308.177,223.003 309.590,224.409 310.800 C 225.816 312.010,227.878 313.816,228.992 314.814 C 247.746 331.606,260.741 339.350,273.038 341.062 C 282.539 342.385,291.820 333.523,295.141 319.958 C 297.649 309.716,297.902 289.050,295.615 281.400 C 295.417 280.740,295.137 279.390,294.992 278.400 C 294.017 271.751,288.737 254.066,285.378 246.200 C 285.096 245.540,284.501 244.145,284.055 243.100 C 283.094 240.846,283.374 240.864,279.503 242.793 " stroke="none" fill="#050505" fill-rule="evenodd"></path><path id="path2" d="M184.400 0.236 C 183.630 0.319,180.210 0.586,176.801 0.830 C 173.391 1.074,170.511 1.410,170.401 1.576 C 170.290 1.743,168.858 2.001,167.217 2.150 C 165.577 2.299,163.237 2.677,162.017 2.989 C 160.798 3.302,158.855 3.680,157.700 3.830 C 156.545 3.980,155.600 4.220,155.600 4.363 C 155.600 4.506,154.117 4.857,152.305 5.142 C 150.492 5.427,148.827 5.810,148.605 5.993 C 148.382 6.175,147.075 6.545,145.700 6.814 C 144.325 7.084,143.200 7.437,143.200 7.601 C 143.200 7.764,142.345 8.011,141.300 8.151 C 140.255 8.291,138.897 8.668,138.283 8.988 C 137.669 9.308,136.544 9.687,135.783 9.830 C 135.022 9.972,134.400 10.220,134.400 10.381 C 134.400 10.541,133.410 10.894,132.200 11.165 C 130.990 11.436,130.000 11.796,130.000 11.965 C 130.000 12.134,129.010 12.494,127.800 12.765 C 126.590 13.036,125.600 13.424,125.600 13.629 C 125.600 13.833,125.334 14.000,125.008 14.000 C 124.173 14.000,119.200 16.081,119.200 16.431 C 119.200 16.590,118.300 16.936,117.200 17.200 C 116.100 17.464,115.200 17.813,115.200 17.976 C 115.200 18.139,114.480 18.510,113.600 18.800 C 112.720 19.090,112.000 19.450,112.000 19.600 C 112.000 19.750,111.280 20.110,110.400 20.400 C 109.520 20.690,108.800 21.065,108.800 21.232 C 108.800 21.400,108.260 21.655,107.600 21.800 C 106.940 21.945,106.400 22.215,106.400 22.401 C 106.400 22.586,105.725 22.957,104.900 23.226 C 104.075 23.494,103.264 23.944,103.098 24.225 C 102.931 24.507,102.256 24.856,101.598 25.001 C 100.939 25.145,100.400 25.407,100.400 25.583 C 100.400 25.759,99.860 26.127,99.200 26.400 C 98.540 26.673,98.000 27.055,98.000 27.249 C 98.000 27.442,97.758 27.600,97.461 27.600 C 97.165 27.600,96.507 27.960,96.000 28.400 C 95.493 28.840,94.829 29.200,94.526 29.200 C 94.223 29.200,93.876 29.459,93.754 29.776 C 93.633 30.092,92.996 30.469,92.340 30.613 C 91.683 30.757,91.049 31.128,90.930 31.438 C 90.812 31.747,90.526 32.000,90.295 32.000 C 90.064 32.000,89.286 32.450,88.564 33.000 C 87.843 33.550,87.151 34.000,87.027 34.000 C 86.902 34.000,86.453 34.315,86.029 34.700 C 84.756 35.855,84.198 36.266,83.175 36.804 C 82.639 37.086,82.056 37.561,81.880 37.858 C 81.704 38.156,81.359 38.400,81.114 38.400 C 80.868 38.400,80.382 38.676,80.034 39.013 C 78.803 40.202,76.996 41.599,76.687 41.600 C 76.514 41.600,75.845 42.140,75.200 42.800 C 74.555 43.460,73.851 44.000,73.636 44.000 C 73.421 44.000,73.010 44.329,72.723 44.731 C 72.435 45.133,71.895 45.629,71.522 45.834 C 68.987 47.228,47.228 68.987,45.834 71.522 C 45.629 71.895,45.133 72.435,44.731 72.723 C 44.329 73.010,44.000 73.421,44.000 73.636 C 44.000 73.851,43.460 74.555,42.800 75.200 C 42.140 75.845,41.600 76.514,41.600 76.687 C 41.599 76.996,40.202 78.803,39.013 80.034 C 38.676 80.382,38.400 80.868,38.400 81.114 C 38.400 81.359,38.156 81.704,37.858 81.880 C 37.561 82.056,37.086 82.639,36.804 83.175 C 36.266 84.198,35.855 84.756,34.700 86.029 C 34.315 86.453,34.000 86.902,34.000 87.027 C 34.000 87.151,33.550 87.843,33.000 88.564 C 32.450 89.286,32.000 90.064,32.000 90.295 C 32.000 90.526,31.747 90.812,31.438 90.930 C 31.128 91.049,30.754 91.698,30.606 92.373 C 30.458 93.048,30.166 93.600,29.958 93.600 C 29.750 93.600,29.409 94.050,29.200 94.600 C 28.991 95.150,28.650 95.600,28.442 95.600 C 28.234 95.600,27.945 96.140,27.800 96.800 C 27.655 97.460,27.393 98.000,27.217 98.000 C 27.041 98.000,26.673 98.540,26.400 99.200 C 26.127 99.860,25.759 100.400,25.583 100.400 C 25.407 100.400,25.145 100.939,25.001 101.598 C 24.856 102.256,24.507 102.931,24.225 103.098 C 23.944 103.264,23.494 104.075,23.226 104.900 C 22.957 105.725,22.586 106.400,22.401 106.400 C 22.215 106.400,21.945 106.940,21.800 107.600 C 21.655 108.260,21.400 108.800,21.232 108.800 C 21.065 108.800,20.690 109.520,20.400 110.400 C 20.110 111.280,19.750 112.000,19.600 112.000 C 19.450 112.000,19.090 112.720,18.800 113.600 C 18.510 114.480,18.144 115.200,17.988 115.200 C 17.832 115.200,17.469 116.055,17.182 117.100 C 16.894 118.145,16.531 119.090,16.375 119.200 C 15.960 119.491,14.000 124.268,14.000 124.988 C 14.000 125.325,13.838 125.600,13.640 125.600 C 13.442 125.600,13.064 126.500,12.800 127.600 C 12.536 128.700,12.183 129.600,12.015 129.600 C 11.847 129.600,11.480 130.680,11.200 132.000 C 10.920 133.320,10.551 134.400,10.381 134.400 C 10.210 134.400,9.949 135.119,9.800 135.998 C 9.652 136.877,9.384 137.686,9.205 137.797 C 9.027 137.907,8.659 138.943,8.388 140.099 C 8.117 141.254,7.765 142.380,7.605 142.600 C 7.445 142.820,7.092 144.170,6.820 145.600 C 6.548 147.030,6.175 148.382,5.993 148.605 C 5.810 148.827,5.427 150.492,5.142 152.305 C 4.857 154.117,4.500 155.600,4.349 155.600 C 4.198 155.600,3.956 156.545,3.811 157.700 C 3.665 158.855,3.298 160.700,2.995 161.800 C 2.692 162.900,2.318 165.240,2.163 167.000 C 2.009 168.760,1.742 170.293,1.570 170.406 C -0.337 171.661,-0.304 228.376,1.604 229.600 C 1.775 229.710,2.049 231.240,2.212 233.000 C 2.376 234.760,2.738 236.849,3.017 237.643 C 3.296 238.436,3.652 240.281,3.809 241.743 C 3.965 243.204,4.230 244.400,4.398 244.400 C 4.565 244.400,4.926 245.840,5.200 247.600 C 5.474 249.360,5.821 250.800,5.971 250.800 C 6.121 250.800,6.471 252.150,6.748 253.800 C 7.025 255.450,7.401 256.800,7.583 256.800 C 7.765 256.800,8.108 257.900,8.345 259.244 C 8.582 260.589,8.945 261.894,9.152 262.144 C 9.359 262.395,9.655 263.275,9.809 264.100 C 9.963 264.925,10.220 265.600,10.381 265.600 C 10.541 265.600,10.910 266.590,11.200 267.800 C 11.490 269.010,11.850 270.000,12.000 270.000 C 12.150 270.000,12.510 270.990,12.800 272.200 C 13.090 273.410,13.458 274.400,13.616 274.400 C 13.775 274.400,14.106 275.199,14.352 276.176 C 14.598 277.153,14.980 278.064,15.200 278.200 C 15.420 278.336,15.600 278.784,15.600 279.195 C 15.600 279.606,15.843 280.186,16.140 280.482 C 16.436 280.779,16.900 281.692,17.171 282.511 C 17.441 283.330,17.828 284.000,18.031 284.000 C 18.234 284.000,18.400 284.352,18.400 284.781 C 18.400 285.561,19.177 287.621,19.615 288.000 C 19.742 288.110,20.095 288.830,20.400 289.600 C 20.705 290.370,21.055 291.090,21.177 291.200 C 21.300 291.310,21.940 292.434,22.600 293.699 C 23.260 294.963,23.907 295.998,24.037 295.999 C 24.167 295.999,24.483 296.699,24.739 297.553 C 24.994 298.406,25.473 299.328,25.802 299.602 C 26.131 299.875,26.400 300.333,26.400 300.620 C 26.400 300.908,26.637 301.381,26.926 301.671 C 27.216 301.962,27.972 303.100,28.607 304.200 C 29.242 305.300,29.861 306.290,29.981 306.400 C 30.102 306.510,30.471 307.140,30.800 307.800 C 31.129 308.460,31.490 309.090,31.600 309.200 C 31.711 309.310,32.342 310.210,33.001 311.200 C 34.362 313.244,34.753 313.776,35.600 314.741 C 35.930 315.117,36.470 315.953,36.800 316.600 C 37.444 317.862,37.760 318.281,39.607 320.314 C 40.263 321.036,40.800 321.756,40.800 321.914 C 40.801 322.183,41.512 323.117,43.679 325.697 C 44.185 326.300,44.780 327.020,45.000 327.297 C 45.774 328.271,48.114 331.023,49.947 333.115 C 52.741 336.305,64.323 348.000,64.687 348.000 C 64.862 348.000,65.551 348.585,66.218 349.300 C 67.264 350.422,71.088 353.764,72.738 354.998 C 73.033 355.219,73.684 355.805,74.184 356.300 C 74.683 356.795,75.287 357.200,75.526 357.200 C 75.765 357.200,76.104 357.426,76.280 357.702 C 76.456 357.979,77.320 358.737,78.200 359.388 C 79.080 360.039,80.038 360.803,80.329 361.086 C 80.619 361.368,80.996 361.600,81.166 361.600 C 81.336 361.600,81.999 362.050,82.638 362.600 C 83.277 363.149,84.025 363.599,84.300 363.600 C 84.575 363.600,84.800 363.784,84.800 364.010 C 84.800 364.235,85.250 364.591,85.800 364.800 C 86.350 365.009,86.800 365.365,86.800 365.590 C 86.800 365.816,86.972 366.000,87.182 366.000 C 87.535 366.000,90.038 367.524,91.025 368.340 C 91.259 368.534,91.889 368.923,92.425 369.206 C 92.961 369.488,93.490 369.845,93.600 369.998 C 93.787 370.259,94.845 370.868,97.200 372.072 C 97.750 372.353,98.336 372.798,98.502 373.060 C 98.669 373.323,99.344 373.656,100.002 373.801 C 100.661 373.945,101.200 374.218,101.200 374.406 C 101.200 374.594,101.830 374.976,102.600 375.254 C 103.370 375.533,104.000 375.891,104.000 376.049 C 104.000 376.208,104.670 376.559,105.489 376.829 C 106.308 377.100,107.221 377.564,107.518 377.860 C 107.814 378.157,108.314 378.400,108.629 378.400 C 108.943 378.400,109.200 378.552,109.200 378.737 C 109.200 378.922,109.920 379.289,110.800 379.553 C 111.680 379.816,112.400 380.181,112.400 380.364 C 112.400 380.547,113.210 380.923,114.200 381.200 C 115.190 381.477,116.000 381.858,116.000 382.046 C 116.000 382.234,116.810 382.592,117.800 382.842 C 118.790 383.091,119.600 383.454,119.600 383.647 C 119.600 383.841,119.792 384.000,120.026 384.000 C 120.260 384.000,121.435 384.450,122.637 385.000 C 123.840 385.550,125.043 386.006,125.312 386.013 C 125.580 386.020,126.132 386.277,126.537 386.584 C 126.942 386.891,127.977 387.261,128.837 387.406 C 129.697 387.551,130.400 387.817,130.400 387.995 C 130.400 388.174,131.345 388.544,132.500 388.818 C 133.655 389.092,134.690 389.440,134.800 389.592 C 134.998 389.866,136.360 390.287,141.000 391.509 C 142.320 391.856,143.490 392.266,143.600 392.420 C 143.710 392.573,145.105 392.930,146.700 393.213 C 148.295 393.497,149.600 393.864,149.600 394.031 C 149.600 394.198,151.220 394.563,153.200 394.843 C 155.180 395.124,156.800 395.475,156.800 395.625 C 156.800 395.774,157.923 396.024,159.296 396.179 C 160.669 396.334,161.983 396.620,162.215 396.813 C 162.448 397.006,164.700 397.388,167.219 397.662 C 169.739 397.935,171.890 398.280,172.000 398.427 C 173.297 400.164,226.387 400.155,227.600 398.418 C 227.710 398.260,229.960 397.905,232.600 397.628 C 235.240 397.352,237.582 396.976,237.804 396.793 C 238.026 396.611,239.331 396.334,240.704 396.179 C 242.077 396.024,243.200 395.769,243.200 395.613 C 243.200 395.457,244.730 395.091,246.600 394.800 C 248.470 394.509,250.000 394.146,250.000 393.992 C 250.000 393.839,251.350 393.482,253.000 393.200 C 254.650 392.918,256.000 392.565,256.000 392.417 C 256.000 392.268,257.170 391.914,258.600 391.630 C 260.030 391.346,261.200 390.969,261.200 390.792 C 261.200 390.615,261.920 390.349,262.800 390.200 C 263.680 390.051,264.400 389.802,264.400 389.645 C 264.400 389.488,265.505 389.132,266.856 388.853 C 268.206 388.574,269.569 388.088,269.884 387.773 C 270.199 387.458,270.852 387.200,271.334 387.200 C 271.817 387.200,272.839 386.864,273.606 386.453 C 274.373 386.043,275.585 385.578,276.300 385.422 C 277.015 385.265,277.600 384.979,277.600 384.786 C 277.600 384.594,278.230 384.318,279.000 384.174 C 279.770 384.029,280.400 383.780,280.400 383.620 C 280.400 383.459,281.120 383.090,282.000 382.800 C 282.880 382.510,283.600 382.121,283.600 381.936 C 283.600 381.751,283.915 381.600,284.300 381.600 C 284.959 381.600,292.369 378.092,292.800 377.576 C 292.910 377.444,293.585 377.081,294.300 376.770 C 295.015 376.459,295.600 376.097,295.600 375.966 C 295.600 375.835,296.320 375.490,297.200 375.200 C 298.080 374.910,298.800 374.532,298.800 374.362 C 298.800 374.191,299.430 373.824,300.200 373.546 C 300.970 373.267,301.600 372.895,301.600 372.720 C 301.600 372.544,301.876 372.400,302.213 372.400 C 302.549 372.400,302.924 372.141,303.046 371.824 C 303.167 371.508,303.804 371.131,304.460 370.987 C 305.117 370.843,305.739 370.502,305.844 370.230 C 305.948 369.959,306.656 369.492,307.417 369.193 C 308.177 368.895,308.800 368.500,308.800 368.315 C 308.800 368.131,309.250 367.809,309.800 367.600 C 310.350 367.391,310.800 367.035,310.800 366.810 C 310.800 366.584,311.076 366.400,311.413 366.400 C 311.749 366.400,312.117 366.161,312.229 365.868 C 312.341 365.576,313.056 365.092,313.817 364.793 C 314.577 364.495,315.200 364.126,315.200 363.974 C 315.200 363.822,315.727 363.479,316.371 363.212 C 317.015 362.945,317.640 362.473,317.759 362.163 C 317.878 361.854,318.244 361.600,318.573 361.600 C 318.903 361.600,319.365 361.240,319.600 360.800 C 319.835 360.360,320.283 360.000,320.594 360.000 C 320.906 360.000,321.304 359.771,321.480 359.490 C 321.656 359.210,322.250 358.684,322.800 358.321 C 323.350 357.958,324.340 357.203,325.000 356.644 C 325.660 356.085,326.810 355.126,327.556 354.514 C 328.302 353.901,329.711 352.635,330.688 351.700 C 331.664 350.765,332.620 350.000,332.811 350.000 C 333.002 350.000,334.671 348.470,336.520 346.600 C 338.370 344.730,339.993 343.200,340.128 343.200 C 340.448 343.200,343.200 340.448,343.200 340.128 C 343.200 339.993,344.730 338.370,346.600 336.520 C 348.470 334.671,350.000 333.002,350.000 332.811 C 350.000 332.620,350.765 331.664,351.700 330.688 C 352.635 329.711,353.901 328.302,354.514 327.556 C 355.126 326.810,356.085 325.660,356.644 325.000 C 357.203 324.340,357.958 323.350,358.321 322.800 C 358.684 322.250,359.210 321.656,359.490 321.480 C 359.771 321.304,360.000 320.906,360.000 320.594 C 360.000 320.283,360.360 319.835,360.800 319.600 C 361.240 319.365,361.600 318.903,361.600 318.573 C 361.600 318.244,361.854 317.878,362.163 317.759 C 362.473 317.640,362.945 317.015,363.212 316.371 C 363.479 315.727,363.822 315.200,363.974 315.200 C 364.126 315.200,364.495 314.577,364.793 313.817 C 365.092 313.056,365.576 312.341,365.868 312.229 C 366.161 312.117,366.400 311.749,366.400 311.413 C 366.400 311.076,366.584 310.800,366.810 310.800 C 367.035 310.800,367.391 310.350,367.600 309.800 C 367.809 309.250,368.131 308.800,368.315 308.800 C 368.500 308.800,368.895 308.177,369.193 307.417 C 369.492 306.656,369.959 305.948,370.230 305.844 C 370.502 305.739,370.843 305.117,370.987 304.460 C 371.131 303.804,371.508 303.167,371.824 303.046 C 372.141 302.924,372.400 302.549,372.400 302.213 C 372.400 301.876,372.544 301.600,372.720 301.600 C 372.895 301.600,373.267 300.970,373.546 300.200 C 373.824 299.430,374.191 298.800,374.362 298.800 C 374.532 298.800,374.910 298.080,375.200 297.200 C 375.490 296.320,375.835 295.600,375.966 295.600 C 376.097 295.600,376.459 295.015,376.770 294.300 C 377.081 293.585,377.440 292.910,377.568 292.800 C 378.025 292.406,381.190 285.778,381.436 284.700 C 381.574 284.095,381.818 283.600,381.979 283.600 C 382.140 283.600,382.510 282.880,382.800 282.000 C 383.090 281.120,383.459 280.400,383.620 280.400 C 383.780 280.400,384.029 279.770,384.174 279.000 C 384.318 278.230,384.594 277.600,384.786 277.600 C 384.979 277.600,385.258 277.015,385.407 276.300 C 385.557 275.585,385.907 274.637,386.187 274.194 C 386.466 273.751,386.833 272.761,387.001 271.994 C 387.169 271.227,387.636 269.985,388.039 269.233 C 388.442 268.481,388.888 267.086,389.031 266.133 C 389.174 265.180,389.435 264.400,389.610 264.400 C 389.786 264.400,390.051 263.680,390.200 262.800 C 390.349 261.920,390.615 261.200,390.792 261.200 C 390.969 261.200,391.346 260.030,391.630 258.600 C 391.914 257.170,392.268 256.000,392.417 256.000 C 392.565 256.000,392.918 254.650,393.200 253.000 C 393.482 251.350,393.835 250.000,393.985 250.000 C 394.134 250.000,394.494 248.515,394.786 246.700 C 395.078 244.885,395.438 243.310,395.587 243.200 C 395.913 242.959,396.614 239.083,397.504 232.600 C 397.867 229.960,398.285 227.710,398.433 227.600 C 400.146 226.327,400.118 172.000,398.404 172.000 C 398.246 172.000,397.904 169.895,397.643 167.322 C 397.382 164.749,397.010 162.453,396.815 162.218 C 396.621 161.984,396.334 160.669,396.179 159.296 C 396.024 157.923,395.766 156.800,395.606 156.800 C 395.447 156.800,395.084 155.180,394.800 153.200 C 394.516 151.220,394.149 149.600,393.983 149.600 C 393.818 149.600,393.476 148.415,393.224 146.966 C 392.971 145.518,392.596 144.033,392.390 143.666 C 392.046 143.057,391.454 141.027,390.299 136.500 C 390.060 135.565,389.744 134.800,389.596 134.800 C 389.449 134.800,389.090 133.810,388.800 132.600 C 388.510 131.390,388.160 130.400,388.023 130.400 C 387.887 130.400,387.526 129.545,387.221 128.500 C 386.917 127.455,386.445 126.240,386.173 125.800 C 385.901 125.360,385.557 124.415,385.407 123.700 C 385.258 122.985,384.991 122.400,384.813 122.400 C 384.635 122.400,384.371 121.770,384.226 121.000 C 384.082 120.230,383.813 119.600,383.629 119.600 C 383.445 119.600,383.091 118.790,382.842 117.800 C 382.592 116.810,382.234 116.000,382.046 116.000 C 381.858 116.000,381.477 115.190,381.200 114.200 C 380.923 113.210,380.547 112.400,380.364 112.400 C 380.181 112.400,379.816 111.680,379.553 110.800 C 379.289 109.920,378.922 109.200,378.737 109.200 C 378.552 109.200,378.400 108.943,378.400 108.629 C 378.400 108.314,378.157 107.814,377.860 107.518 C 377.564 107.221,377.100 106.308,376.829 105.489 C 376.559 104.670,376.208 104.000,376.049 104.000 C 375.891 104.000,375.533 103.370,375.254 102.600 C 374.976 101.830,374.594 101.200,374.406 101.200 C 374.218 101.200,373.942 100.648,373.794 99.973 C 373.646 99.298,373.272 98.649,372.962 98.530 C 372.653 98.412,372.400 98.091,372.400 97.818 C 372.400 97.546,372.040 96.907,371.600 96.400 C 371.160 95.893,370.800 95.248,370.800 94.967 C 370.800 94.687,370.558 94.216,370.263 93.920 C 369.968 93.625,369.494 92.949,369.209 92.417 C 368.925 91.885,368.534 91.259,368.340 91.025 C 367.524 90.038,366.000 87.535,366.000 87.182 C 366.000 86.972,365.816 86.800,365.590 86.800 C 365.365 86.800,365.009 86.350,364.800 85.800 C 364.591 85.250,364.235 84.800,364.010 84.800 C 363.784 84.800,363.600 84.575,363.600 84.300 C 363.599 83.842,362.619 82.469,361.029 80.700 C 360.683 80.315,360.400 79.822,360.400 79.603 C 360.400 79.385,360.040 78.982,359.600 78.707 C 359.160 78.432,358.800 77.979,358.800 77.700 C 358.800 77.421,358.440 76.884,358.000 76.507 C 357.560 76.130,357.200 75.658,357.200 75.458 C 357.200 75.258,356.570 74.500,355.800 73.774 C 355.030 73.048,354.400 72.280,354.400 72.068 C 354.400 71.856,353.794 71.151,353.053 70.500 C 352.312 69.850,351.637 69.116,351.553 68.870 C 351.178 67.774,335.987 52.000,335.306 52.000 C 335.135 52.000,334.449 51.415,333.782 50.700 C 332.736 49.578,328.912 46.236,327.262 45.002 C 326.967 44.781,326.316 44.195,325.816 43.700 C 325.317 43.205,324.749 42.797,324.554 42.793 C 324.359 42.789,323.776 42.339,323.258 41.793 C 322.740 41.247,322.161 40.800,321.972 40.800 C 321.782 40.800,321.036 40.263,320.314 39.607 C 318.273 37.753,317.861 37.443,316.588 36.801 C 315.935 36.471,315.256 35.976,315.080 35.701 C 314.904 35.425,314.508 35.200,314.200 35.200 C 313.892 35.200,313.496 34.974,313.320 34.699 C 313.144 34.423,312.190 33.659,311.200 33.000 C 310.210 32.341,309.310 31.702,309.200 31.578 C 309.090 31.455,308.415 31.118,307.700 30.829 C 306.985 30.540,306.400 30.157,306.400 29.978 C 306.400 29.800,306.083 29.553,305.696 29.431 C 305.309 29.308,304.032 28.575,302.859 27.802 C 301.685 27.029,300.305 26.291,299.791 26.162 C 299.278 26.033,298.767 25.691,298.656 25.402 C 298.545 25.112,297.902 24.754,297.227 24.606 C 296.552 24.458,296.000 24.178,296.000 23.984 C 296.000 23.791,295.280 23.416,294.400 23.153 C 293.520 22.889,292.800 22.536,292.800 22.367 C 292.800 22.199,291.765 21.552,290.500 20.930 C 289.235 20.309,288.108 19.678,287.995 19.530 C 287.882 19.381,286.937 19.045,285.895 18.782 C 284.853 18.520,284.000 18.154,284.000 17.969 C 284.000 17.784,283.280 17.416,282.400 17.153 C 281.520 16.889,280.800 16.522,280.800 16.337 C 280.800 16.152,280.485 15.999,280.100 15.997 C 279.715 15.996,278.860 15.637,278.200 15.200 C 277.540 14.763,276.765 14.404,276.478 14.403 C 276.191 14.401,275.156 14.035,274.178 13.590 C 273.200 13.144,271.860 12.672,271.200 12.540 C 270.540 12.408,270.000 12.171,270.000 12.014 C 270.000 11.856,269.010 11.506,267.800 11.235 C 266.590 10.964,265.600 10.606,265.600 10.439 C 265.600 10.272,264.835 9.932,263.900 9.684 C 262.965 9.437,261.030 8.925,259.600 8.547 C 258.170 8.169,256.910 7.732,256.800 7.577 C 256.690 7.421,255.295 7.054,253.700 6.760 C 252.105 6.467,250.800 6.107,250.800 5.962 C 250.800 5.817,249.360 5.474,247.600 5.200 C 245.840 4.926,244.400 4.565,244.400 4.398 C 244.400 4.230,243.204 3.965,241.743 3.809 C 240.281 3.652,238.432 3.293,237.633 3.012 C 236.834 2.730,234.700 2.368,232.890 2.208 C 231.081 2.048,229.600 1.787,229.600 1.628 C 229.600 0.722,190.951 -0.468,184.400 0.236 M153.600 59.224 C 159.751 59.814,167.647 60.780,169.800 61.206 C 170.900 61.424,173.420 61.885,175.400 62.231 C 180.173 63.065,183.483 63.745,187.600 64.738 C 189.470 65.189,191.810 65.753,192.800 65.991 C 193.790 66.228,195.815 66.778,197.300 67.211 C 198.785 67.645,201.305 68.377,202.900 68.837 C 206.687 69.929,215.054 72.729,216.660 73.441 C 217.354 73.749,218.023 74.000,218.148 74.000 C 218.509 74.000,227.070 77.386,230.800 79.004 C 246.313 85.732,261.930 94.393,273.177 102.506 C 274.469 103.438,275.925 104.470,276.412 104.800 C 293.105 116.105,311.154 136.609,317.961 152.000 C 333.148 186.337,317.227 215.636,272.200 236.213 C 254.085 244.491,226.775 251.239,201.000 253.805 C 188.713 255.028,185.509 255.187,173.200 255.187 C 158.713 255.187,149.291 254.515,137.733 252.658 C 95.660 245.898,82.930 223.562,101.451 189.000 C 104.582 183.157,112.798 169.235,113.878 167.943 C 114.673 166.992,118.664 159.079,118.955 157.877 C 119.307 156.422,117.647 153.010,114.356 148.429 C 111.935 145.058,101.040 131.355,100.181 130.600 C 98.809 129.394,88.626 115.958,86.236 112.200 C 85.397 110.880,84.352 109.287,83.913 108.660 C 74.285 94.883,74.083 77.912,83.459 70.541 C 84.258 69.914,85.120 69.198,85.375 68.952 C 86.241 68.115,90.883 65.609,93.600 64.511 C 106.222 59.409,131.912 57.145,153.600 59.224 M125.600 70.388 C 104.718 71.447,90.299 76.582,88.385 83.643 C 86.409 90.938,92.647 102.916,108.325 121.929 C 127.244 144.872,130.541 150.134,130.553 157.400 C 130.558 160.052,130.367 161.422,129.827 162.600 C 129.424 163.480,128.727 165.010,128.280 166.000 C 127.404 167.936,123.446 174.851,120.610 179.400 C 104.236 205.670,101.058 218.782,108.808 228.097 C 111.386 231.196,115.509 233.790,122.600 236.774 C 137.654 243.110,180.517 245.607,205.600 241.609 C 207.030 241.381,210.090 240.921,212.400 240.586 C 217.704 239.817,222.483 238.999,224.800 238.463 C 225.790 238.234,228.400 237.659,230.600 237.185 C 241.693 234.796,257.101 229.966,265.000 226.403 C 270.221 224.048,271.800 223.316,274.200 222.140 C 277.479 220.534,276.948 220.835,282.842 217.245 C 317.301 196.259,320.989 167.742,293.400 135.604 C 284.197 124.884,264.921 109.849,249.800 101.597 C 239.833 96.158,238.055 95.250,231.800 92.406 C 225.360 89.477,223.696 88.763,220.200 87.428 C 218.660 86.839,217.040 86.192,216.600 85.990 C 215.608 85.533,213.941 84.952,205.600 82.155 C 179.005 73.238,150.910 69.105,125.600 70.388 M193.400 152.213 C 202.020 152.848,215.117 158.096,224.532 164.687 C 227.634 166.859,230.974 169.313,231.200 169.586 C 231.310 169.720,232.803 170.966,234.518 172.355 C 241.420 177.946,252.012 189.366,259.048 198.800 C 263.324 204.535,269.600 213.945,269.600 214.622 C 269.600 215.064,260.943 218.904,259.842 218.951 C 258.784 218.996,258.356 218.516,254.892 213.400 C 224.834 169.014,190.335 153.253,161.000 170.506 C 146.616 178.966,135.250 193.571,126.996 214.200 C 126.178 216.244,124.718 220.590,123.604 224.300 C 123.125 225.895,122.649 227.200,122.547 227.200 C 119.894 227.200,113.714 221.107,113.552 218.331 C 113.354 214.941,120.852 197.620,125.903 189.800 C 141.194 166.125,159.481 153.491,180.600 152.012 C 184.921 151.709,187.006 151.742,193.400 152.213 M284.390 242.578 C 284.836 243.556,285.201 244.501,285.202 244.678 C 285.204 244.855,285.454 245.478,285.759 246.061 C 286.063 246.645,286.532 247.787,286.800 248.600 C 287.068 249.413,287.537 250.555,287.841 251.139 C 288.146 251.722,288.396 252.443,288.398 252.740 C 288.399 253.036,288.650 253.846,288.957 254.540 C 289.263 255.233,290.008 257.420,290.612 259.400 C 291.217 261.380,291.861 263.360,292.045 263.800 C 292.376 264.593,293.278 268.138,294.031 271.600 C 294.246 272.590,294.677 274.480,294.987 275.800 C 298.571 291.039,298.460 311.683,294.731 323.200 C 288.527 342.365,274.391 346.416,254.340 334.775 C 252.723 333.836,251.310 332.945,251.200 332.794 C 251.090 332.643,250.557 332.286,250.015 332.000 C 247.961 330.917,239.152 324.185,234.000 319.761 C 233.450 319.288,230.840 317.049,228.200 314.784 C 225.560 312.519,223.112 310.381,222.760 310.033 C 222.408 309.685,221.505 308.860,220.754 308.200 C 209.987 298.739,205.134 294.773,200.400 291.563 C 196.672 289.036,192.626 289.225,185.740 292.247 C 185.046 292.551,184.264 292.800,184.000 292.800 C 183.736 292.800,182.954 293.062,182.260 293.383 C 181.567 293.703,179.380 294.509,177.400 295.174 C 175.420 295.839,172.540 296.839,171.000 297.396 C 164.621 299.706,157.962 301.351,149.000 302.831 C 123.551 307.034,107.531 290.158,107.117 258.714 C 107.028 251.935,106.973 252.076,109.261 253.192 C 110.218 253.658,112.170 254.491,113.600 255.042 C 119.148 257.180,118.641 256.627,118.948 260.864 C 121.278 293.016,133.747 298.132,174.400 283.614 C 199.796 274.545,200.355 274.681,224.599 295.836 C 227.900 298.716,231.305 301.686,232.168 302.436 C 233.030 303.186,235.280 305.156,237.168 306.814 C 257.629 324.780,271.637 332.378,277.600 328.744 C 285.680 323.820,288.281 301.165,283.364 278.540 C 281.131 268.263,278.989 261.285,274.931 251.068 C 272.650 245.322,272.611 244.544,274.600 244.395 C 274.820 244.379,276.620 243.578,278.600 242.615 C 283.181 240.387,283.391 240.385,284.390 242.578 " stroke="none" fill="#fbfbfb" fill-rule="evenodd"></path><path id="path3" d="M132.900 58.697 C 134.385 58.774,136.815 58.774,138.300 58.697 C 139.785 58.620,138.570 58.557,135.600 58.557 C 132.630 58.557,131.415 58.620,132.900 58.697 M117.441 59.239 C 115.704 59.423,114.084 59.661,113.841 59.768 C 113.320 59.999,118.767 59.629,122.200 59.201 L 124.600 58.901 122.600 58.904 C 121.500 58.905,119.179 59.056,117.441 59.239 M149.400 59.176 C 152.853 59.644,159.466 60.017,157.200 59.616 C 156.210 59.441,153.510 59.197,151.200 59.075 C 148.167 58.913,147.667 58.942,149.400 59.176 M106.045 60.832 C 105.079 61.022,104.194 61.273,104.076 61.390 C 103.783 61.684,107.612 61.155,108.600 60.766 L 109.400 60.451 108.600 60.469 C 108.160 60.479,107.010 60.643,106.045 60.832 M164.600 60.745 C 165.040 60.930,166.570 61.184,168.000 61.308 C 171.151 61.583,169.568 61.019,166.181 60.660 C 164.767 60.510,164.125 60.544,164.600 60.745 M100.600 62.215 C 99.023 62.761,99.020 62.765,100.400 62.532 C 102.032 62.257,103.700 61.648,102.800 61.656 C 102.470 61.659,101.480 61.911,100.600 62.215 M174.600 62.400 C 175.260 62.568,176.340 62.705,177.000 62.705 L 178.200 62.705 177.000 62.400 C 176.340 62.232,175.260 62.095,174.600 62.095 L 173.400 62.095 174.600 62.400 M95.400 63.814 C 94.400 64.296,94.366 64.351,95.200 64.148 C 96.333 63.871,97.607 63.221,97.000 63.230 C 96.780 63.233,96.060 63.496,95.400 63.814 M181.000 63.564 C 181.440 63.748,182.610 64.012,183.600 64.151 C 184.738 64.310,185.106 64.277,184.600 64.061 C 184.160 63.872,182.990 63.608,182.000 63.474 C 180.888 63.323,180.506 63.357,181.000 63.564 M91.700 65.212 C 91.205 65.411,90.800 65.670,90.800 65.787 C 90.800 66.175,91.437 66.008,92.224 65.413 C 93.108 64.743,92.985 64.696,91.700 65.212 M188.200 65.155 C 189.427 65.679,191.915 66.105,191.200 65.669 C 190.870 65.467,189.880 65.192,189.000 65.058 C 187.958 64.898,187.679 64.932,188.200 65.155 M194.600 66.739 C 195.837 67.268,197.910 67.677,197.200 67.251 C 196.870 67.054,195.970 66.780,195.200 66.644 C 194.256 66.477,194.060 66.508,194.600 66.739 M200.200 68.339 C 201.437 68.868,203.510 69.277,202.800 68.851 C 202.470 68.654,201.570 68.380,200.800 68.244 C 199.856 68.077,199.660 68.108,200.200 68.339 M82.899 71.100 C 80.871 73.057,78.176 76.710,78.513 77.046 C 78.617 77.151,79.182 76.419,79.768 75.419 C 80.353 74.420,81.847 72.612,83.087 71.401 C 84.327 70.190,85.235 69.200,85.105 69.200 C 84.975 69.200,83.983 70.055,82.899 71.100 M205.000 69.762 C 205.660 70.053,206.740 70.398,207.400 70.529 L 208.600 70.767 207.400 70.238 C 206.740 69.947,205.660 69.602,205.000 69.471 L 203.800 69.233 205.000 69.762 M127.600 69.975 C 125.730 70.099,129.330 70.200,135.600 70.200 C 142.734 70.200,145.503 70.105,143.000 69.947 C 138.291 69.649,132.347 69.660,127.600 69.975 M112.640 71.242 C 111.342 71.431,110.172 71.697,110.040 71.832 C 109.799 72.078,113.047 71.753,116.400 71.194 L 118.200 70.894 116.600 70.896 C 115.720 70.897,113.938 71.052,112.640 71.242 M155.800 71.165 C 159.112 71.688,163.209 72.001,161.623 71.609 C 160.866 71.423,158.796 71.175,157.023 71.060 C 154.637 70.904,154.319 70.932,155.800 71.165 M209.200 71.141 C 209.530 71.334,210.340 71.609,211.000 71.752 C 211.768 71.918,211.984 71.884,211.600 71.659 C 211.270 71.466,210.460 71.191,209.800 71.048 C 209.032 70.882,208.816 70.916,209.200 71.141 M104.200 73.007 L 102.600 73.552 104.200 73.314 C 105.080 73.183,106.250 72.939,106.800 72.772 L 107.800 72.469 106.800 72.465 C 106.250 72.463,105.080 72.707,104.200 73.007 M167.600 72.767 C 169.678 73.268,173.148 73.616,172.200 73.228 C 171.760 73.048,170.230 72.795,168.800 72.665 C 166.982 72.500,166.621 72.531,167.600 72.767 M214.000 72.746 C 214.974 73.326,216.658 73.747,216.200 73.297 C 215.980 73.080,215.260 72.788,214.600 72.646 C 213.817 72.478,213.608 72.513,214.000 72.746 M99.858 74.252 C 98.790 74.580,97.986 74.919,98.072 75.006 C 98.261 75.194,102.400 74.013,102.400 73.770 C 102.400 73.518,102.001 73.594,99.858 74.252 M175.800 74.209 C 176.900 74.492,178.160 74.719,178.600 74.714 C 179.040 74.709,178.500 74.474,177.400 74.191 C 176.300 73.908,175.040 73.681,174.600 73.686 C 174.160 73.691,174.700 73.926,175.800 74.209 M218.400 74.333 C 218.730 74.536,219.450 74.824,220.000 74.971 C 220.695 75.157,220.817 75.125,220.400 74.867 C 220.070 74.664,219.350 74.376,218.800 74.229 C 218.105 74.043,217.983 74.075,218.400 74.333 M96.100 75.796 C 95.385 76.107,94.800 76.456,94.800 76.572 C 94.800 76.819,96.826 75.996,97.380 75.524 C 97.905 75.076,97.614 75.138,96.100 75.796 M182.200 75.550 C 182.640 75.735,183.720 75.999,184.600 76.137 C 185.615 76.295,185.908 76.264,185.400 76.050 C 184.960 75.865,183.880 75.601,183.000 75.463 C 181.985 75.305,181.692 75.336,182.200 75.550 M222.758 76.037 C 223.725 76.466,224.588 76.745,224.675 76.658 C 224.848 76.486,221.765 75.182,221.292 75.228 C 221.131 75.244,221.791 75.608,222.758 76.037 M93.189 77.460 C 91.766 78.411,89.600 80.479,89.137 81.330 C 88.919 81.731,89.608 81.182,90.670 80.109 C 91.731 79.036,93.050 77.862,93.600 77.500 C 94.150 77.138,94.505 76.833,94.389 76.821 C 94.273 76.809,93.733 77.097,93.189 77.460 M189.000 77.139 C 190.237 77.668,192.310 78.077,191.600 77.651 C 191.270 77.454,190.370 77.180,189.600 77.044 C 188.656 76.877,188.460 76.908,189.000 77.139 M225.600 77.031 C 225.600 77.301,227.678 78.056,227.876 77.857 C 227.967 77.767,227.492 77.501,226.820 77.267 C 226.149 77.033,225.600 76.927,225.600 77.031 M193.400 78.346 C 193.840 78.539,194.830 78.810,195.600 78.950 C 196.561 79.124,196.749 79.094,196.200 78.854 C 195.760 78.661,194.770 78.390,194.000 78.250 C 193.039 78.076,192.851 78.106,193.400 78.346 M77.240 79.840 C 77.010 80.673,76.894 81.427,76.982 81.515 C 77.070 81.603,77.330 80.993,77.560 80.160 C 77.790 79.327,77.906 78.573,77.818 78.485 C 77.730 78.397,77.470 79.007,77.240 79.840 M230.000 79.000 C 230.550 79.314,231.180 79.572,231.400 79.572 C 231.620 79.572,231.350 79.314,230.800 79.000 C 230.250 78.686,229.620 78.428,229.400 78.428 C 229.180 78.428,229.450 78.686,230.000 79.000 M200.200 80.400 C 201.396 80.914,202.395 80.914,201.600 80.400 C 201.270 80.187,200.640 80.022,200.200 80.034 L 199.400 80.056 200.200 80.400 M232.800 80.134 C 232.800 80.237,233.381 80.524,234.091 80.772 C 234.801 81.019,235.206 81.057,234.991 80.856 C 234.535 80.429,232.800 79.858,232.800 80.134 M204.000 81.541 C 204.330 81.734,205.140 82.009,205.800 82.152 C 206.568 82.318,206.784 82.284,206.400 82.059 C 206.070 81.866,205.260 81.591,204.600 81.448 C 203.832 81.282,203.616 81.316,204.000 81.541 M237.200 82.200 C 237.750 82.514,238.380 82.772,238.600 82.772 C 238.820 82.772,238.550 82.514,238.000 82.200 C 237.450 81.886,236.820 81.628,236.600 81.628 C 236.380 81.628,236.650 81.886,237.200 82.200 M209.400 83.414 C 210.060 83.717,210.870 83.957,211.200 83.949 C 211.530 83.942,211.260 83.688,210.600 83.386 C 209.940 83.083,209.130 82.843,208.800 82.851 C 208.470 82.858,208.740 83.112,209.400 83.414 M87.852 84.100 C 87.534 85.285,87.583 88.816,87.929 89.689 C 88.080 90.068,88.202 88.763,88.201 86.789 C 88.200 82.835,88.197 82.813,87.852 84.100 M213.200 84.800 C 213.530 85.013,214.070 85.188,214.400 85.188 C 214.933 85.188,214.933 85.145,214.400 84.800 C 214.070 84.587,213.530 84.412,213.200 84.412 C 212.667 84.412,212.667 84.455,213.200 84.800 M242.976 85.020 C 243.836 85.662,244.568 85.796,244.230 85.248 C 244.110 85.055,243.605 84.794,243.106 84.668 C 242.232 84.448,242.227 84.460,242.976 85.020 M76.101 86.600 C 76.105 87.480,76.187 87.793,76.283 87.295 C 76.379 86.798,76.375 86.078,76.275 85.695 C 76.175 85.313,76.096 85.720,76.101 86.600 M216.615 85.941 C 217.104 86.385,219.678 87.255,219.887 87.047 C 219.973 86.961,219.186 86.598,218.137 86.240 C 217.089 85.883,216.404 85.748,216.615 85.941 M221.200 87.800 C 221.750 88.114,222.380 88.372,222.600 88.372 C 222.820 88.372,222.550 88.114,222.000 87.800 C 221.450 87.486,220.820 87.228,220.600 87.228 C 220.380 87.228,220.650 87.486,221.200 87.800 M248.000 87.379 C 248.000 87.489,248.540 87.859,249.200 88.200 C 249.860 88.541,250.400 88.731,250.400 88.621 C 250.400 88.511,249.860 88.141,249.200 87.800 C 248.540 87.459,248.000 87.269,248.000 87.379 M224.400 89.031 C 224.400 89.301,226.478 90.056,226.676 89.857 C 226.767 89.767,226.292 89.501,225.620 89.267 C 224.949 89.033,224.400 88.927,224.400 89.031 M250.800 88.992 C 250.800 89.182,253.559 90.724,254.900 91.283 C 256.287 91.861,255.556 91.252,253.406 90.038 C 251.208 88.798,250.800 88.634,250.800 88.992 M228.220 90.755 C 228.429 90.950,229.050 91.228,229.600 91.372 L 230.600 91.633 229.600 91.031 C 228.486 90.359,227.609 90.184,228.220 90.755 M77.029 93.000 C 77.163 93.880,77.444 94.870,77.654 95.200 C 78.113 95.924,77.686 93.428,77.141 92.200 C 76.898 91.654,76.863 91.908,77.029 93.000 M230.800 91.791 C 230.800 92.008,235.951 94.412,236.355 94.382 C 236.668 94.360,233.803 92.846,232.100 92.133 C 231.385 91.834,230.800 91.680,230.800 91.791 M256.000 91.779 C 256.000 91.889,256.540 92.259,257.200 92.600 C 257.860 92.941,258.400 93.131,258.400 93.021 C 258.400 92.911,257.860 92.541,257.200 92.200 C 256.540 91.859,256.000 91.669,256.000 91.779 M88.826 92.800 C 88.827 93.130,89.099 93.850,89.431 94.400 L 90.033 95.400 89.768 94.400 C 89.384 92.948,88.824 91.997,88.826 92.800 M258.907 93.448 C 259.059 93.695,260.222 94.516,261.492 95.273 C 262.761 96.029,264.333 96.998,264.985 97.424 C 265.636 97.851,266.045 97.998,265.893 97.752 C 265.741 97.505,264.578 96.684,263.308 95.927 C 262.039 95.171,260.467 94.202,259.815 93.776 C 259.164 93.349,258.755 93.202,258.907 93.448 M90.400 96.700 C 90.400 96.891,90.661 97.396,90.980 97.824 C 91.540 98.573,91.552 98.568,91.332 97.694 C 91.104 96.791,90.400 96.040,90.400 96.700 M240.800 96.587 C 240.800 96.697,241.700 97.243,242.800 97.800 C 243.900 98.357,244.800 98.723,244.800 98.613 C 244.800 98.503,243.900 97.957,242.800 97.400 C 241.700 96.843,240.800 96.477,240.800 96.587 M78.629 98.000 C 78.776 98.550,79.064 99.270,79.267 99.600 C 79.525 100.017,79.557 99.895,79.371 99.200 C 79.224 98.650,78.936 97.930,78.733 97.600 C 78.475 97.183,78.443 97.305,78.629 98.000 M267.174 98.724 C 267.709 99.159,268.699 99.819,269.374 100.191 L 270.600 100.867 269.626 100.076 C 269.091 99.641,268.101 98.981,267.426 98.609 L 266.200 97.933 267.174 98.724 M92.200 100.000 C 92.541 100.660,92.911 101.200,93.021 101.200 C 93.131 101.200,92.941 100.660,92.600 100.000 C 92.259 99.340,91.889 98.800,91.779 98.800 C 91.669 98.800,91.859 99.340,92.200 100.000 M246.000 99.427 C 246.000 99.511,246.585 99.882,247.300 100.252 C 248.399 100.820,248.521 100.828,248.087 100.305 C 247.621 99.744,246.000 99.062,246.000 99.427 M80.029 101.510 C 80.276 102.220,80.642 102.903,80.842 103.026 C 81.042 103.150,80.991 102.744,80.727 102.125 C 80.021 100.465,79.506 100.012,80.029 101.510 M249.376 101.413 C 249.804 101.736,250.344 101.994,250.576 101.987 C 250.809 101.980,250.651 101.710,250.224 101.387 C 249.796 101.064,249.256 100.806,249.024 100.813 C 248.791 100.820,248.949 101.090,249.376 101.413 M272.400 102.146 C 272.400 102.256,272.940 102.730,273.600 103.200 C 274.260 103.670,274.800 103.964,274.800 103.854 C 274.800 103.744,274.260 103.270,273.600 102.800 C 272.940 102.330,272.400 102.036,272.400 102.146 M252.000 102.820 C 253.387 103.761,254.178 104.035,253.200 103.236 C 252.650 102.786,252.020 102.417,251.800 102.415 C 251.580 102.413,251.670 102.596,252.000 102.820 M95.032 104.747 C 95.443 105.443,96.193 106.505,96.697 107.106 C 97.297 107.821,97.171 107.465,96.334 106.078 C 95.630 104.911,94.881 103.850,94.669 103.719 C 94.458 103.588,94.621 104.051,95.032 104.747 M81.625 104.600 C 81.625 104.820,81.890 105.349,82.213 105.776 C 82.536 106.204,82.800 106.373,82.800 106.153 C 82.800 105.933,82.536 105.404,82.213 104.976 C 81.890 104.549,81.625 104.380,81.625 104.600 M276.919 105.469 C 277.037 105.660,278.004 106.415,279.067 107.146 L 281.000 108.474 279.600 107.227 C 278.118 105.907,276.557 104.884,276.919 105.469 M258.600 106.689 C 259.267 107.366,267.717 112.913,267.468 112.510 C 267.340 112.304,265.473 110.965,263.318 109.536 C 259.008 106.677,257.973 106.052,258.600 106.689 M97.923 109.000 C 98.155 109.440,98.913 110.430,99.608 111.200 L 100.872 112.600 99.565 110.800 C 97.964 108.596,97.364 107.938,97.923 109.000 M283.200 110.090 C 283.200 110.368,291.955 118.111,292.800 118.580 C 293.729 119.095,292.915 118.353,284.100 110.647 C 283.605 110.215,283.200 109.964,283.200 110.090 M85.962 111.929 C 86.205 112.384,86.601 112.877,86.842 113.026 C 87.156 113.220,87.154 113.062,86.838 112.471 C 86.595 112.016,86.199 111.523,85.958 111.374 C 85.644 111.180,85.646 111.338,85.962 111.929 M269.179 113.873 C 274.466 118.194,280.871 123.165,280.384 122.572 C 279.683 121.716,271.180 114.935,269.200 113.653 L 267.800 112.746 269.179 113.873 M87.562 114.329 C 87.805 114.784,88.201 115.277,88.442 115.426 C 88.756 115.620,88.754 115.462,88.438 114.871 C 88.195 114.416,87.799 113.923,87.558 113.774 C 87.244 113.580,87.246 113.738,87.562 114.329 M102.634 115.266 C 104.888 118.401,107.440 121.566,107.726 121.582 C 107.905 121.592,106.931 120.205,105.561 118.500 C 102.928 115.223,101.347 113.476,102.634 115.266 M90.446 118.169 C 90.582 118.406,91.664 119.860,92.852 121.400 C 97.829 127.854,100.179 130.755,100.316 130.618 C 100.396 130.537,98.630 128.161,96.392 125.336 C 92.209 120.057,90.013 117.410,90.446 118.169 M111.474 126.240 C 113.413 128.682,115.070 130.622,115.155 130.551 C 115.323 130.413,111.765 125.986,109.406 123.400 C 108.604 122.520,109.534 123.798,111.474 126.240 M282.400 124.600 C 283.146 125.370,283.847 126.000,283.957 126.000 C 284.067 126.000,283.546 125.370,282.800 124.600 C 282.054 123.830,281.353 123.200,281.243 123.200 C 281.133 123.200,281.654 123.830,282.400 124.600 M301.876 128.243 C 303.427 130.027,305.731 132.862,306.996 134.543 C 308.262 136.225,309.386 137.600,309.496 137.600 C 309.993 137.600,302.243 127.925,300.364 126.200 C 299.645 125.540,300.326 126.460,301.876 128.243 M288.000 129.800 C 289.195 131.010,290.263 132.000,290.373 132.000 C 290.483 132.000,289.595 131.010,288.400 129.800 C 287.205 128.590,286.137 127.600,286.027 127.600 C 285.917 127.600,286.805 128.590,288.000 129.800 M116.796 132.794 C 117.490 133.671,118.267 134.518,118.523 134.676 C 118.778 134.834,118.293 134.116,117.445 133.081 C 116.597 132.047,115.820 131.200,115.718 131.200 C 115.616 131.200,116.101 131.918,116.796 132.794 M107.080 139.036 C 109.727 142.316,112.861 146.356,114.046 148.012 C 117.607 152.992,117.797 153.238,116.974 151.800 C 115.187 148.676,103.957 134.115,102.768 133.380 C 102.493 133.211,104.434 135.755,107.080 139.036 M293.029 135.238 C 293.673 136.029,294.281 136.608,294.379 136.525 C 294.478 136.442,293.951 135.795,293.209 135.087 L 291.858 133.800 293.029 135.238 M296.155 138.919 C 297.003 139.953,297.780 140.800,297.882 140.800 C 298.155 140.800,295.621 137.660,295.077 137.324 C 294.822 137.166,295.307 137.884,296.155 138.919 M310.866 139.922 C 311.570 141.089,312.319 142.150,312.531 142.281 C 313.049 142.601,311.645 140.255,310.503 138.894 C 309.903 138.179,310.029 138.535,310.866 139.922 M122.816 140.563 C 123.568 141.609,124.356 142.573,124.567 142.703 C 124.778 142.833,124.335 142.084,123.584 141.037 C 122.832 139.991,122.044 139.027,121.833 138.897 C 121.622 138.767,122.065 139.516,122.816 140.563 M299.475 143.208 C 300.042 144.268,302.099 147.200,302.276 147.200 C 302.549 147.200,301.101 144.882,300.085 143.694 C 299.571 143.092,299.296 142.873,299.475 143.208 M313.787 144.600 C 314.403 145.700,315.092 146.780,315.319 147.000 C 315.546 147.220,315.228 146.500,314.613 145.400 C 313.997 144.300,313.308 143.220,313.081 143.000 C 312.854 142.780,313.172 143.500,313.787 144.600 M125.409 144.226 C 125.781 144.901,126.441 145.891,126.876 146.426 L 127.667 147.400 126.991 146.174 C 126.619 145.499,125.959 144.509,125.524 143.974 L 124.733 143.000 125.409 144.226 M127.634 147.800 C 127.634 148.020,127.978 148.830,128.400 149.600 C 128.822 150.370,129.166 150.820,129.166 150.600 C 129.166 150.380,128.822 149.570,128.400 148.800 C 127.978 148.030,127.634 147.580,127.634 147.800 M302.886 148.400 C 303.206 148.950,304.143 150.615,304.968 152.100 C 305.794 153.585,306.553 154.800,306.656 154.800 C 306.968 154.800,304.044 149.473,303.144 148.400 L 302.305 147.400 302.886 148.400 M316.000 148.700 C 316.000 148.891,316.261 149.396,316.580 149.824 C 317.140 150.573,317.152 150.568,316.932 149.694 C 316.704 148.791,316.000 148.040,316.000 148.700 M317.200 150.884 C 317.200 151.316,318.415 154.000,318.611 154.000 C 318.721 154.000,318.533 153.334,318.193 152.521 C 317.593 151.086,317.200 150.438,317.200 150.884 M129.239 151.200 C 129.224 151.310,129.467 152.210,129.779 153.200 C 130.091 154.190,130.350 154.640,130.355 154.200 C 130.363 153.503,129.308 150.671,129.239 151.200 M185.300 151.876 C 185.685 151.976,186.315 151.976,186.700 151.876 C 187.085 151.775,186.770 151.693,186.000 151.693 C 185.230 151.693,184.915 151.775,185.300 151.876 M117.600 153.500 C 117.600 153.691,117.861 154.196,118.180 154.624 C 118.740 155.373,118.752 155.368,118.532 154.494 C 118.304 153.591,117.600 152.840,117.600 153.500 M319.029 155.200 C 319.176 155.750,319.464 156.470,319.667 156.800 C 319.925 157.217,319.957 157.095,319.771 156.400 C 319.624 155.850,319.336 155.130,319.133 154.800 C 318.875 154.383,318.843 154.505,319.029 155.200 M306.828 155.292 C 306.782 155.765,308.086 158.848,308.258 158.675 C 308.345 158.588,308.066 157.725,307.637 156.758 C 307.208 155.791,306.844 155.131,306.828 155.292 M130.514 157.400 C 130.517 158.500,130.595 158.903,130.687 158.295 C 130.779 157.686,130.777 156.786,130.682 156.295 C 130.587 155.803,130.511 156.300,130.514 157.400 M320.629 160.000 C 320.773 160.770,321.059 161.670,321.263 162.000 C 321.510 162.399,321.546 162.130,321.371 161.200 C 321.227 160.430,320.941 159.530,320.737 159.200 C 320.490 158.801,320.454 159.070,320.629 160.000 M117.978 160.258 C 117.757 160.839,117.464 161.497,117.326 161.719 C 117.189 161.942,117.266 162.006,117.499 161.863 C 117.939 161.590,118.900 159.200,118.569 159.200 C 118.465 159.200,118.199 159.676,117.978 160.258 M308.629 160.000 C 308.776 160.550,309.064 161.270,309.267 161.600 C 309.525 162.017,309.557 161.895,309.371 161.200 C 309.224 160.650,308.936 159.930,308.733 159.600 C 308.475 159.183,308.443 159.305,308.629 160.000 M129.726 161.388 C 129.501 162.371,129.463 163.084,129.643 162.974 C 130.019 162.741,130.586 160.052,130.315 159.782 C 130.216 159.683,129.951 160.405,129.726 161.388 M184.905 163.487 C 185.514 163.579,186.414 163.577,186.905 163.482 C 187.397 163.387,186.900 163.311,185.800 163.314 C 184.700 163.317,184.297 163.395,184.905 163.487 M310.056 164.200 C 310.059 164.640,310.307 165.720,310.607 166.600 L 311.152 168.200 310.919 166.600 C 310.791 165.720,310.543 164.640,310.368 164.200 L 310.051 163.400 310.056 164.200 M128.378 165.058 C 128.157 165.639,127.864 166.297,127.726 166.519 C 127.589 166.742,127.666 166.806,127.899 166.663 C 128.339 166.390,129.300 164.000,128.969 164.000 C 128.865 164.000,128.599 164.476,128.378 165.058 M322.065 165.000 C 322.063 165.440,322.311 167.150,322.616 168.800 L 323.171 171.800 322.955 169.117 C 322.742 166.454,322.073 163.362,322.065 165.000 M115.000 166.000 C 114.659 166.660,114.469 167.200,114.579 167.200 C 114.689 167.200,115.059 166.660,115.400 166.000 C 115.741 165.340,115.931 164.800,115.821 164.800 C 115.711 164.800,115.341 165.340,115.000 166.000 M126.857 168.057 C 126.575 168.509,126.432 168.966,126.540 169.073 C 126.647 169.181,126.944 168.878,127.200 168.400 C 127.456 167.922,127.598 167.465,127.517 167.384 C 127.436 167.303,127.139 167.606,126.857 168.057 M113.068 169.100 C 112.550 169.925,111.913 171.050,111.651 171.600 L 111.177 172.600 111.888 171.634 C 113.012 170.109,114.467 167.600,114.228 167.600 C 114.108 167.600,113.586 168.275,113.068 169.100 M142.181 169.700 L 140.600 171.400 142.300 169.819 C 143.881 168.348,144.184 168.000,143.881 168.000 C 143.816 168.000,143.051 168.765,142.181 169.700 M311.701 176.200 C 311.701 180.805,311.740 181.102,312.038 178.800 C 312.223 177.370,312.223 175.030,312.038 173.600 C 311.740 171.297,311.701 171.595,311.701 176.200 M123.692 173.735 C 123.259 174.469,122.579 175.594,122.181 176.235 C 121.663 177.069,121.634 177.230,122.078 176.800 C 122.784 176.117,124.980 172.400,124.678 172.400 C 124.568 172.400,124.125 173.001,123.692 173.735 M236.800 174.600 C 237.546 175.370,238.247 176.000,238.357 176.000 C 238.467 176.000,237.946 175.370,237.200 174.600 C 236.454 173.830,235.753 173.200,235.643 173.200 C 235.533 173.200,236.054 173.830,236.800 174.600 M136.778 175.100 L 135.400 176.600 136.900 175.222 C 137.725 174.463,138.400 173.788,138.400 173.722 C 138.400 173.416,138.062 173.704,136.778 175.100 M323.328 176.400 C 323.328 177.830,323.401 178.415,323.489 177.700 C 323.578 176.985,323.578 175.815,323.489 175.100 C 323.401 174.385,323.328 174.970,323.328 176.400 M108.668 176.300 C 107.409 178.305,106.733 179.600,106.946 179.600 C 107.042 179.600,107.475 178.999,107.908 178.265 C 108.341 177.531,109.010 176.451,109.394 175.865 C 109.778 175.279,109.984 174.800,109.851 174.800 C 109.718 174.800,109.186 175.475,108.668 176.300 M119.816 180.100 C 119.003 181.475,118.599 182.330,118.918 182.000 C 119.609 181.285,121.759 177.600,121.485 177.600 C 121.380 177.600,120.628 178.725,119.816 180.100 M147.586 180.700 L 145.400 183.000 147.700 180.814 C 148.965 179.611,150.000 178.576,150.000 178.514 C 150.000 178.217,149.618 178.563,147.586 180.700 M322.421 184.232 C 322.152 185.900,322.015 187.349,322.118 187.451 C 322.308 187.642,322.557 186.452,323.025 183.100 C 323.460 179.992,322.951 180.945,322.421 184.232 M230.783 184.900 C 231.764 185.945,232.619 186.800,232.683 186.800 C 232.984 186.800,232.666 186.441,230.900 184.783 L 229.000 183.000 230.783 184.900 M143.775 184.900 L 142.600 186.200 143.900 185.025 C 145.112 183.930,145.384 183.600,145.075 183.600 C 145.006 183.600,144.421 184.185,143.775 184.900 M310.400 185.600 C 310.151 186.524,310.037 187.371,310.147 187.481 C 310.257 187.591,310.551 186.924,310.800 186.000 C 311.049 185.076,311.163 184.229,311.053 184.119 C 310.943 184.009,310.649 184.676,310.400 185.600 M116.681 185.100 C 116.589 185.265,116.009 186.300,115.391 187.400 C 114.774 188.500,114.454 189.220,114.681 189.000 C 115.260 188.439,117.322 184.800,117.062 184.800 C 116.944 184.800,116.772 184.935,116.681 185.100 M248.000 185.725 C 248.000 185.794,248.585 186.379,249.300 187.025 L 250.600 188.200 249.425 186.900 C 248.330 185.688,248.000 185.416,248.000 185.725 M101.326 189.100 C 101.189 189.485,101.001 189.980,100.909 190.200 C 100.816 190.420,101.024 190.251,101.370 189.824 C 101.999 189.048,102.189 188.400,101.787 188.400 C 101.671 188.400,101.463 188.715,101.326 189.100 M308.850 190.250 C 308.586 190.829,308.462 191.395,308.574 191.507 C 308.686 191.619,308.968 191.211,309.200 190.600 C 309.749 189.157,309.473 188.882,308.850 190.250 M113.400 190.800 C 113.059 191.460,112.869 192.000,112.979 192.000 C 113.089 192.000,113.459 191.460,113.800 190.800 C 114.141 190.140,114.331 189.600,114.221 189.600 C 114.111 189.600,113.741 190.140,113.400 190.800 M320.646 191.446 C 320.292 192.485,320.072 193.405,320.156 193.490 C 320.241 193.574,320.600 192.793,320.954 191.754 C 321.308 190.715,321.528 189.795,321.444 189.710 C 321.359 189.626,321.000 190.407,320.646 191.446 M100.014 191.574 C 99.507 192.521,99.484 192.919,99.952 192.630 C 100.305 192.412,100.855 190.800,100.577 190.800 C 100.495 190.800,100.242 191.148,100.014 191.574 M238.383 192.500 C 239.364 193.545,240.219 194.400,240.283 194.400 C 240.584 194.400,240.266 194.041,238.500 192.383 L 236.600 190.600 238.383 192.500 M98.465 195.017 C 97.795 196.488,97.923 196.802,98.647 195.465 C 98.986 194.840,99.188 194.254,99.096 194.163 C 99.005 194.071,98.721 194.456,98.465 195.017 M319.250 195.050 C 318.986 195.629,318.862 196.195,318.974 196.307 C 319.086 196.419,319.368 196.011,319.600 195.400 C 320.149 193.957,319.873 193.682,319.250 195.050 M306.553 194.900 C 306.390 195.175,305.975 195.843,305.629 196.385 C 305.238 196.997,305.190 197.252,305.503 197.059 C 306.020 196.740,307.368 194.400,307.034 194.400 C 306.931 194.400,306.715 194.625,306.553 194.900 M96.844 198.844 C 96.598 199.551,96.466 200.200,96.552 200.285 C 96.638 200.371,96.909 199.862,97.156 199.156 C 97.402 198.449,97.534 197.800,97.448 197.715 C 97.362 197.629,97.091 198.138,96.844 198.844 M303.064 200.001 C 302.039 201.321,301.200 202.510,301.200 202.644 C 301.200 202.956,304.324 199.226,304.839 198.300 C 305.570 196.985,304.929 197.599,303.064 200.001 M317.726 198.300 C 317.589 198.685,317.401 199.180,317.309 199.400 C 317.216 199.620,317.424 199.451,317.770 199.024 C 318.399 198.248,318.589 197.600,318.187 197.600 C 318.071 197.600,317.863 197.915,317.726 198.300 M108.811 199.771 C 108.217 201.334,108.334 201.580,109.047 200.265 C 109.386 199.640,109.564 199.030,109.442 198.909 C 109.321 198.788,109.037 199.176,108.811 199.771 M315.303 202.500 C 314.409 203.875,313.103 205.810,312.401 206.800 C 311.422 208.182,311.372 208.321,312.189 207.400 C 313.854 205.520,317.502 200.000,317.079 200.000 C 316.996 200.000,316.197 201.125,315.303 202.500 M95.240 203.440 C 95.010 204.273,94.894 205.027,94.982 205.115 C 95.070 205.203,95.330 204.593,95.560 203.760 C 95.790 202.927,95.906 202.173,95.818 202.085 C 95.730 201.997,95.470 202.607,95.240 203.440 M107.244 203.644 C 106.998 204.351,106.866 205.000,106.952 205.085 C 107.038 205.171,107.309 204.662,107.556 203.956 C 107.802 203.249,107.934 202.600,107.848 202.515 C 107.762 202.429,107.491 202.938,107.244 203.644 M298.386 205.500 L 296.200 207.800 298.500 205.614 C 299.765 204.411,300.800 203.376,300.800 203.314 C 300.800 203.017,300.418 203.363,298.386 205.500 M105.893 207.400 C 105.284 209.491,105.218 211.025,105.815 209.206 C 106.139 208.219,106.341 207.229,106.265 207.006 C 106.188 206.783,106.021 206.960,105.893 207.400 M93.813 208.873 C 93.667 209.823,93.449 211.185,93.329 211.900 C 93.209 212.615,93.205 213.200,93.319 213.200 C 93.608 213.200,94.528 207.595,94.280 207.347 C 94.170 207.236,93.960 207.923,93.813 208.873 M309.429 210.362 L 308.258 211.800 309.609 210.513 C 310.351 209.805,310.878 209.158,310.779 209.075 C 310.681 208.992,310.073 209.571,309.429 210.362 M293.000 210.234 C 292.340 210.787,290.360 212.250,288.600 213.485 C 285.198 215.871,283.812 217.026,285.800 215.817 C 288.729 214.037,294.997 209.236,294.400 209.231 C 294.290 209.230,293.660 209.681,293.000 210.234 M104.650 212.850 C 104.325 214.473,104.378 219.603,104.728 220.483 C 104.878 220.858,105.000 219.013,105.000 216.382 C 105.000 211.076,105.002 211.092,104.650 212.850 M303.764 216.044 C 303.344 216.511,301.515 218.071,299.700 219.511 C 296.660 221.923,296.140 222.400,296.549 222.400 C 297.117 222.400,304.963 215.629,304.700 215.366 C 304.606 215.272,304.185 215.577,303.764 216.044 M282.059 217.785 C 279.241 219.581,278.885 220.031,281.400 218.620 C 283.207 217.606,284.858 216.384,284.386 216.410 C 284.284 216.416,283.236 217.035,282.059 217.785 M93.437 221.600 C 93.707 223.741,94.393 226.540,94.597 226.336 C 94.752 226.182,93.714 220.875,93.397 220.200 C 93.294 219.980,93.312 220.610,93.437 221.600 M114.800 221.725 C 114.800 221.794,115.385 222.379,116.100 223.025 L 117.400 224.200 116.225 222.900 C 115.130 221.688,114.800 221.416,114.800 221.725 M105.200 222.146 C 105.200 222.622,106.348 225.200,106.559 225.200 C 106.669 225.200,106.479 224.525,106.138 223.700 C 105.496 222.151,105.200 221.661,105.200 222.146 M271.600 223.400 C 271.050 223.714,270.780 223.972,271.000 223.972 C 271.220 223.972,271.850 223.714,272.400 223.400 C 272.950 223.086,273.220 222.828,273.000 222.828 C 272.780 222.828,272.150 223.086,271.600 223.400 M293.679 224.035 C 292.755 224.714,292.000 225.355,292.000 225.459 C 292.000 225.564,292.810 225.068,293.800 224.357 C 295.419 223.195,295.844 222.800,295.479 222.800 C 295.412 222.800,294.602 223.356,293.679 224.035 M268.176 224.980 C 267.427 225.540,267.432 225.552,268.306 225.332 C 268.805 225.206,269.310 224.945,269.430 224.752 C 269.768 224.204,269.036 224.338,268.176 224.980 M107.483 226.732 C 108.307 228.263,111.749 231.645,113.211 232.360 C 113.997 232.745,113.953 232.659,113.000 231.943 C 111.469 230.794,108.379 227.698,107.467 226.400 C 106.829 225.491,106.830 225.521,107.483 226.732 M265.642 226.034 C 265.115 226.245,264.784 226.517,264.907 226.640 C 265.029 226.762,265.640 226.586,266.265 226.247 C 267.521 225.566,267.139 225.435,265.642 226.034 M286.912 228.299 C 285.544 229.101,284.499 229.832,284.589 229.922 C 284.767 230.100,289.600 227.253,289.600 226.971 C 289.600 226.720,289.613 226.714,286.912 228.299 M95.229 228.310 C 95.476 229.020,95.842 229.703,96.042 229.826 C 96.242 229.950,96.191 229.544,95.927 228.925 C 95.221 227.265,94.706 226.812,95.229 228.310 M261.600 227.831 L 260.600 228.433 261.600 228.172 C 262.150 228.028,262.771 227.750,262.980 227.555 C 263.591 226.984,262.714 227.159,261.600 227.831 M257.400 229.414 C 256.400 229.896,256.366 229.951,257.200 229.748 C 258.333 229.471,259.607 228.821,259.000 228.830 C 258.780 228.833,258.060 229.096,257.400 229.414 M253.675 230.673 C 252.726 231.009,252.021 231.354,252.107 231.441 C 252.290 231.623,256.000 230.405,256.000 230.162 C 256.000 229.912,255.545 230.012,253.675 230.673 M282.700 230.629 C 281.205 231.440,281.296 231.778,282.800 231.000 C 283.460 230.659,284.000 230.294,284.000 230.190 C 284.000 229.932,283.957 229.947,282.700 230.629 M96.400 230.756 C 96.400 230.951,96.769 231.536,97.220 232.056 L 98.040 233.000 97.410 231.700 C 96.790 230.421,96.400 230.056,96.400 230.756 M249.200 232.200 C 248.430 232.497,248.070 232.745,248.400 232.752 C 248.730 232.758,249.540 232.517,250.200 232.214 C 251.745 231.507,251.026 231.497,249.200 232.200 M277.300 233.434 C 276.585 233.746,276.000 234.082,276.000 234.180 C 276.000 234.475,278.384 233.549,278.624 233.161 C 278.891 232.729,278.929 232.721,277.300 233.434 M114.800 233.386 C 114.800 233.726,119.666 236.067,119.896 235.837 C 120.014 235.719,119.642 235.444,119.069 235.226 C 118.496 235.008,117.301 234.460,116.414 234.007 C 115.526 233.554,114.800 233.275,114.800 233.386 M244.100 233.648 C 243.385 233.854,242.800 234.122,242.800 234.243 C 242.800 234.563,245.331 233.981,245.780 233.558 C 246.245 233.120,245.856 233.141,244.100 233.648 M100.288 236.191 C 100.919 236.956,102.237 238.250,103.217 239.066 C 104.412 240.061,104.077 239.602,102.200 237.676 C 99.127 234.521,98.529 234.056,100.288 236.191 M238.200 235.415 C 236.616 235.963,236.614 235.966,238.000 235.738 C 238.770 235.612,239.670 235.354,240.000 235.166 C 240.881 234.664,240.030 234.782,238.200 235.415 M273.200 235.400 C 272.650 235.714,272.380 235.972,272.600 235.972 C 272.820 235.972,273.450 235.714,274.000 235.400 C 274.550 235.086,274.820 234.828,274.600 234.828 C 274.380 234.828,273.750 235.086,273.200 235.400 M121.200 236.536 C 121.750 236.846,122.650 237.219,123.200 237.365 L 124.200 237.629 123.200 237.064 C 122.650 236.754,121.750 236.381,121.200 236.235 L 120.200 235.971 121.200 236.536 M270.600 236.614 C 269.595 237.098,269.563 237.153,270.400 236.951 C 270.950 236.819,271.571 236.550,271.780 236.355 C 272.298 235.871,272.014 235.933,270.600 236.614 M231.824 236.850 C 230.957 237.053,230.154 237.313,230.039 237.428 C 229.757 237.709,233.195 237.163,234.200 236.766 L 235.000 236.451 234.200 236.466 C 233.760 236.474,232.691 236.647,231.824 236.850 M125.800 238.170 C 126.460 238.464,127.630 238.817,128.400 238.952 L 129.800 239.198 128.400 238.661 C 127.630 238.366,126.460 238.014,125.800 237.879 L 124.600 237.633 125.800 238.170 M226.423 238.036 C 225.446 238.228,224.456 238.478,224.223 238.592 C 223.528 238.932,227.634 238.364,228.553 237.993 C 229.614 237.564,228.738 237.582,226.423 238.036 M266.600 238.214 C 265.600 238.696,265.566 238.751,266.400 238.548 C 267.533 238.271,268.807 237.621,268.200 237.630 C 267.980 237.633,267.260 237.896,266.600 238.214 M130.600 239.555 C 131.040 239.744,132.210 240.007,133.200 240.141 C 134.384 240.300,134.658 240.271,134.000 240.054 C 132.507 239.562,129.630 239.140,130.600 239.555 M218.026 239.654 C 216.830 239.852,215.750 240.122,215.626 240.253 C 215.326 240.568,219.578 239.989,220.600 239.575 C 221.610 239.165,220.826 239.190,218.026 239.654 M262.600 239.814 C 261.600 240.296,261.566 240.351,262.400 240.148 C 263.533 239.871,264.807 239.221,264.200 239.230 C 263.980 239.233,263.260 239.496,262.600 239.814 M106.094 241.303 C 107.455 242.445,109.801 243.849,109.481 243.331 C 109.350 243.119,108.289 242.370,107.122 241.666 C 105.735 240.829,105.379 240.703,106.094 241.303 M138.200 241.154 C 138.640 241.344,140.170 241.605,141.600 241.735 C 143.444 241.902,143.793 241.871,142.800 241.629 C 140.628 241.099,137.267 240.753,138.200 241.154 M207.659 241.231 C 204.079 241.695,203.656 242.006,207.000 241.716 C 209.725 241.480,212.760 240.849,211.000 240.885 C 210.560 240.894,209.057 241.050,207.659 241.231 M258.100 241.212 C 257.605 241.411,257.200 241.657,257.200 241.759 C 257.200 241.980,259.616 241.317,259.921 241.012 C 260.250 240.683,259.102 240.810,258.100 241.212 M254.400 242.488 C 253.630 242.716,253.205 242.979,253.457 243.071 C 253.708 243.163,254.518 242.974,255.257 242.651 C 256.819 241.970,256.409 241.891,254.400 242.488 M149.831 242.798 C 150.948 242.962,154.188 243.194,157.031 243.314 L 162.200 243.532 156.600 242.999 C 150.255 242.394,146.276 242.276,149.831 242.798 M189.800 243.018 L 184.200 243.516 190.000 243.302 C 193.190 243.184,196.700 242.955,197.800 242.794 L 199.800 242.500 197.600 242.510 C 196.390 242.515,192.880 242.744,189.800 243.018 M110.576 244.220 C 111.436 244.862,112.168 244.996,111.830 244.448 C 111.710 244.255,111.205 243.994,110.706 243.868 C 109.832 243.648,109.827 243.660,110.576 244.220 M169.500 243.898 C 171.535 243.971,174.865 243.971,176.900 243.898 C 178.935 243.825,177.270 243.766,173.200 243.766 C 169.130 243.766,167.465 243.825,169.500 243.898 M250.000 243.863 C 249.670 243.973,249.149 244.143,248.843 244.241 C 248.536 244.339,248.372 244.505,248.478 244.611 C 248.583 244.717,249.374 244.545,250.235 244.230 C 251.648 243.712,251.438 243.384,250.000 243.863 M112.574 245.158 C 112.697 245.358,113.380 245.724,114.090 245.971 C 115.588 246.494,115.135 245.979,113.475 245.273 C 112.856 245.009,112.450 244.958,112.574 245.158 M243.656 245.659 C 242.917 245.872,242.404 246.137,242.516 246.249 C 242.745 246.479,246.000 245.671,246.000 245.385 C 246.000 245.120,245.203 245.214,243.656 245.659 M116.215 246.741 C 116.704 247.185,119.278 248.055,119.487 247.847 C 119.573 247.761,118.786 247.398,117.737 247.040 C 116.689 246.683,116.004 246.548,116.215 246.741 M238.000 247.200 C 237.208 247.454,237.167 247.520,237.800 247.520 C 238.240 247.520,239.050 247.376,239.600 247.200 C 240.392 246.946,240.433 246.880,239.800 246.880 C 239.360 246.880,238.550 247.024,238.000 247.200 M121.000 248.614 C 121.660 248.917,122.470 249.158,122.800 249.152 C 123.130 249.145,122.770 248.897,122.000 248.600 C 120.174 247.897,119.455 247.907,121.000 248.614 M232.423 248.436 C 229.834 248.944,229.487 249.236,231.800 248.962 C 232.900 248.831,234.070 248.567,234.400 248.374 C 235.109 247.961,234.798 247.970,232.423 248.436 M125.600 249.961 C 126.431 250.442,129.181 250.944,128.400 250.472 C 128.070 250.273,127.170 249.998,126.400 249.862 C 125.529 249.707,125.227 249.745,125.600 249.961 M224.000 250.225 L 221.800 250.761 224.000 250.530 C 225.210 250.403,226.560 250.153,227.000 249.975 L 227.800 249.651 227.000 249.670 C 226.560 249.681,225.210 249.931,224.000 250.225 M132.200 251.564 C 132.640 251.748,133.810 252.012,134.800 252.151 C 135.938 252.310,136.306 252.277,135.800 252.061 C 135.360 251.872,134.190 251.608,133.200 251.474 C 132.088 251.323,131.706 251.357,132.200 251.564 M214.826 251.654 C 213.630 251.852,212.550 252.119,212.426 252.246 C 212.145 252.534,216.595 251.999,217.981 251.578 L 219.000 251.269 218.000 251.281 C 217.450 251.288,216.022 251.456,214.826 251.654 M141.200 253.149 C 141.750 253.326,143.550 253.575,145.200 253.701 C 147.078 253.844,147.699 253.809,146.860 253.607 C 144.976 253.154,139.958 252.747,141.200 253.149 M203.400 253.200 L 201.400 253.474 203.600 253.490 C 204.810 253.498,206.340 253.368,207.000 253.200 L 208.200 252.895 206.800 252.910 C 206.030 252.919,204.500 253.049,203.400 253.200 M150.705 254.283 C 151.202 254.379,151.922 254.375,152.305 254.275 C 152.687 254.175,152.280 254.096,151.400 254.101 C 150.520 254.105,150.207 254.187,150.705 254.283 M194.300 254.282 C 194.795 254.378,195.605 254.378,196.100 254.282 C 196.595 254.187,196.190 254.109,195.200 254.109 C 194.210 254.109,193.805 254.187,194.300 254.282 M156.400 254.860 C 158.270 255.003,165.830 255.121,173.200 255.121 C 180.570 255.121,188.130 255.003,190.000 254.860 C 191.870 254.717,184.310 254.600,173.200 254.600 C 162.090 254.600,154.530 254.717,156.400 254.860 M106.893 256.800 C 106.893 257.570,106.975 257.885,107.076 257.500 C 107.176 257.115,107.176 256.485,107.076 256.100 C 106.975 255.715,106.893 256.030,106.893 256.800 M107.309 264.400 C 107.309 265.390,107.387 265.795,107.482 265.300 C 107.578 264.805,107.578 263.995,107.482 263.500 C 107.387 263.005,107.309 263.410,107.309 264.400 M126.800 286.200 C 127.546 286.970,128.247 287.600,128.357 287.600 C 128.467 287.600,127.946 286.970,127.200 286.200 C 126.454 285.430,125.753 284.800,125.643 284.800 C 125.533 284.800,126.054 285.430,126.800 286.200 M144.500 291.476 C 144.885 291.576,145.515 291.576,145.900 291.476 C 146.285 291.375,145.970 291.293,145.200 291.293 C 144.430 291.293,144.115 291.375,144.500 291.476 M297.309 293.200 C 297.309 294.190,297.387 294.595,297.482 294.100 C 297.578 293.605,297.578 292.795,297.482 292.300 C 297.387 291.805,297.309 292.210,297.309 293.200 M118.800 294.600 C 119.546 295.370,120.247 296.000,120.357 296.000 C 120.467 296.000,119.946 295.370,119.200 294.600 C 118.454 293.830,117.753 293.200,117.643 293.200 C 117.533 293.200,118.054 293.830,118.800 294.600 M224.400 295.725 C 224.400 295.794,224.985 296.379,225.700 297.025 L 227.000 298.200 225.825 296.900 C 224.730 295.688,224.400 295.416,224.400 295.725 M227.600 298.525 C 227.600 298.594,228.185 299.179,228.900 299.825 L 230.200 301.000 229.025 299.700 C 227.930 298.488,227.600 298.216,227.600 298.525 M137.500 303.082 C 137.995 303.178,138.805 303.178,139.300 303.082 C 139.795 302.987,139.390 302.909,138.400 302.909 C 137.410 302.909,137.005 302.987,137.500 303.082 M145.305 303.087 C 145.914 303.179,146.814 303.177,147.305 303.082 C 147.797 302.987,147.300 302.911,146.200 302.914 C 145.100 302.917,144.697 302.995,145.305 303.087 M235.200 305.400 C 235.946 306.170,236.647 306.800,236.757 306.800 C 236.867 306.800,236.346 306.170,235.600 305.400 C 234.854 304.630,234.153 304.000,234.043 304.000 C 233.933 304.000,234.454 304.630,235.200 305.400 M297.301 308.200 C 297.305 309.080,297.387 309.393,297.483 308.895 C 297.579 308.398,297.575 307.678,297.475 307.295 C 297.375 306.913,297.296 307.320,297.301 308.200 M224.400 311.325 C 224.400 311.394,224.985 311.979,225.700 312.625 L 227.000 313.800 225.825 312.500 C 224.730 311.288,224.400 311.016,224.400 311.325 " stroke="none" fill="#9bc7dd" fill-rule="evenodd"></path><path id="path4" d="M177.659 152.431 C 174.188 152.881,173.604 153.223,176.800 152.934 C 180.146 152.631,183.143 152.085,181.400 152.095 C 180.740 152.098,179.057 152.250,177.659 152.431 M191.400 152.374 C 193.761 152.860,198.155 153.249,196.460 152.822 C 195.723 152.636,193.923 152.386,192.460 152.265 C 190.497 152.103,190.219 152.131,191.400 152.374 M169.400 154.215 C 167.823 154.761,167.820 154.765,169.200 154.532 C 170.832 154.257,172.500 153.648,171.600 153.656 C 171.270 153.659,170.280 153.911,169.400 154.215 M200.600 154.000 C 201.040 154.189,201.670 154.344,202.000 154.344 C 202.378 154.344,202.304 154.217,201.800 154.000 C 201.360 153.811,200.730 153.656,200.400 153.656 C 200.022 153.656,200.096 153.783,200.600 154.000 M165.275 155.473 C 164.326 155.809,163.621 156.154,163.707 156.241 C 163.890 156.423,167.600 155.205,167.600 154.962 C 167.600 154.712,167.145 154.812,165.275 155.473 M161.600 157.000 C 161.050 157.314,160.780 157.572,161.000 157.572 C 161.220 157.572,161.850 157.314,162.400 157.000 C 162.950 156.686,163.220 156.428,163.000 156.428 C 162.780 156.428,162.150 156.686,161.600 157.000 M208.800 156.631 C 208.800 156.901,210.878 157.656,211.076 157.457 C 211.167 157.367,210.692 157.101,210.020 156.867 C 209.349 156.633,208.800 156.527,208.800 156.631 M155.900 159.829 C 154.405 160.640,154.496 160.978,156.000 160.200 C 156.660 159.859,157.200 159.494,157.200 159.390 C 157.200 159.132,157.157 159.147,155.900 159.829 M215.600 159.724 C 215.600 159.834,216.635 160.505,217.900 161.215 C 219.165 161.925,221.460 163.337,223.000 164.353 C 226.891 166.920,226.800 166.866,226.800 166.611 C 226.800 166.327,221.006 162.552,217.900 160.812 C 216.635 160.103,215.600 159.614,215.600 159.724 M152.278 161.991 C 151.245 162.646,150.400 163.269,150.400 163.375 C 150.400 163.480,151.300 163.007,152.400 162.324 C 154.164 161.227,154.691 160.800,154.278 160.800 C 154.211 160.800,153.311 161.336,152.278 161.991 M181.800 163.169 C 180.678 163.305,182.435 163.413,185.800 163.416 C 189.911 163.418,191.044 163.336,189.400 163.153 C 186.542 162.836,184.504 162.840,181.800 163.169 M147.276 165.566 C 144.330 167.853,139.742 172.152,137.209 175.000 C 136.230 176.100,137.583 174.918,140.215 172.374 C 142.847 169.830,146.125 166.879,147.500 165.815 C 149.699 164.115,150.268 163.590,149.900 163.604 C 149.845 163.606,148.664 164.489,147.276 165.566 M173.400 164.589 C 171.252 165.297,172.097 165.324,174.600 164.628 C 175.700 164.322,176.240 164.069,175.800 164.067 C 175.360 164.064,174.280 164.299,173.400 164.589 M197.000 164.628 C 198.100 164.934,199.180 165.169,199.400 165.150 C 200.077 165.092,196.652 164.061,195.800 164.067 C 195.360 164.069,195.900 164.322,197.000 164.628 M168.600 166.214 C 167.600 166.696,167.566 166.751,168.400 166.548 C 169.533 166.271,170.807 165.621,170.200 165.630 C 169.980 165.633,169.260 165.896,168.600 166.214 M201.600 165.933 C 201.930 166.136,202.650 166.424,203.200 166.571 C 203.895 166.757,204.017 166.725,203.600 166.467 C 203.270 166.264,202.550 165.976,202.000 165.829 C 201.305 165.643,201.183 165.675,201.600 165.933 M165.200 167.600 C 164.430 168.022,163.980 168.366,164.200 168.366 C 164.420 168.366,165.230 168.022,166.000 167.600 C 166.770 167.178,167.220 166.834,167.000 166.834 C 166.780 166.834,165.970 167.178,165.200 167.600 M205.200 167.369 C 206.314 168.041,207.191 168.216,206.580 167.645 C 206.371 167.450,205.750 167.172,205.200 167.028 L 204.200 166.767 205.200 167.369 M227.200 166.939 C 227.200 167.034,228.865 168.425,230.900 170.029 C 232.935 171.632,234.333 172.618,234.008 172.220 C 233.366 171.435,227.200 166.652,227.200 166.939 M161.200 169.616 C 159.990 170.273,158.460 171.255,157.800 171.800 C 157.140 172.344,158.117 171.890,159.971 170.790 C 163.189 168.882,163.937 168.387,163.567 168.411 C 163.475 168.417,162.410 168.959,161.200 169.616 M211.600 170.420 C 212.987 171.361,213.778 171.635,212.800 170.836 C 212.250 170.386,211.620 170.017,211.400 170.015 C 211.180 170.013,211.270 170.196,211.600 170.420 M153.580 174.849 C 150.315 177.441,147.304 180.336,144.685 183.400 C 143.557 184.720,144.607 183.802,147.017 181.361 C 149.428 178.919,152.525 176.058,153.900 175.002 C 156.143 173.279,156.661 172.800,156.280 172.800 C 156.214 172.800,154.999 173.722,153.580 174.849 M216.174 173.158 C 216.323 173.399,216.816 173.795,217.271 174.038 C 217.862 174.354,218.020 174.356,217.826 174.042 C 217.677 173.801,217.184 173.405,216.729 173.162 C 216.138 172.846,215.980 172.844,216.174 173.158 M236.000 174.200 C 236.746 174.970,237.447 175.600,237.557 175.600 C 237.667 175.600,237.146 174.970,236.400 174.200 C 235.654 173.430,234.953 172.800,234.843 172.800 C 234.733 172.800,235.254 173.430,236.000 174.200 M218.400 174.567 C 218.400 174.674,219.255 175.323,220.300 176.009 C 221.911 177.067,222.018 177.098,221.000 176.209 C 219.703 175.076,218.400 174.253,218.400 174.567 M239.935 177.855 C 242.993 180.531,250.778 189.069,254.928 194.300 C 256.892 196.775,258.578 198.800,258.675 198.800 C 258.966 198.800,254.129 192.667,250.713 188.706 C 246.873 184.252,238.757 176.010,238.207 176.004 C 237.991 176.002,238.768 176.835,239.935 177.855 M134.120 178.500 C 132.898 179.843,128.428 185.987,127.967 186.956 C 127.571 187.790,127.574 187.790,128.195 187.000 C 129.468 185.379,135.129 177.600,135.036 177.600 C 134.983 177.600,134.571 178.005,134.120 178.500 M226.600 180.839 C 229.690 183.560,240.021 193.890,242.763 197.000 C 244.257 198.694,244.485 198.872,243.540 197.603 C 241.432 194.777,230.694 183.943,227.286 181.205 C 224.687 179.117,224.578 179.059,226.600 180.839 M137.683 192.500 C 135.474 195.799,134.880 196.801,135.487 196.200 C 136.124 195.569,140.047 189.600,139.824 189.600 C 139.714 189.600,138.751 190.905,137.683 192.500 M122.820 195.560 C 122.143 196.902,121.668 198.000,121.764 198.000 C 122.050 198.000,124.413 193.479,124.225 193.291 C 124.130 193.197,123.498 194.217,122.820 195.560 M259.968 200.800 C 260.646 201.790,261.665 203.140,262.232 203.800 C 263.025 204.722,262.978 204.583,262.032 203.200 C 261.354 202.210,260.335 200.860,259.768 200.200 C 258.975 199.278,259.022 199.417,259.968 200.800 M247.214 202.500 C 248.347 203.985,249.359 205.200,249.464 205.200 C 249.754 205.200,248.248 203.191,246.615 201.400 C 245.693 200.389,245.914 200.794,247.214 202.500 M119.265 202.617 C 118.595 204.088,118.723 204.402,119.447 203.065 C 119.786 202.440,119.988 201.854,119.896 201.763 C 119.805 201.671,119.521 202.056,119.265 202.617 M131.478 203.005 C 131.112 203.772,130.895 204.400,130.996 204.400 C 131.270 204.400,132.484 201.951,132.301 201.768 C 132.214 201.681,131.844 202.238,131.478 203.005 M129.262 207.527 C 128.568 209.032,128.006 210.429,128.014 210.632 C 128.022 210.834,128.654 209.667,129.418 208.037 C 130.183 206.408,130.744 205.011,130.666 204.932 C 130.587 204.854,129.955 206.021,129.262 207.527 M252.647 209.900 C 254.536 212.603,256.093 214.483,255.379 213.200 C 254.787 212.135,251.142 207.200,250.948 207.200 C 250.844 207.200,251.609 208.415,252.647 209.900 M265.409 208.626 C 265.781 209.301,266.441 210.291,266.876 210.826 L 267.667 211.800 266.991 210.574 C 266.619 209.899,265.959 208.909,265.524 208.374 L 264.733 207.400 265.409 208.626 M116.444 209.244 C 116.198 209.951,116.066 210.600,116.152 210.685 C 116.238 210.771,116.509 210.262,116.756 209.556 C 117.002 208.849,117.134 208.200,117.048 208.115 C 116.962 208.029,116.691 208.538,116.444 209.244 M115.040 213.063 C 114.683 214.111,114.548 214.796,114.741 214.585 C 115.185 214.096,116.055 211.522,115.847 211.313 C 115.761 211.227,115.398 212.014,115.040 213.063 M267.960 212.600 C 268.634 213.905,269.188 214.628,269.185 214.200 C 269.183 213.980,268.814 213.350,268.364 212.800 C 267.821 212.136,267.685 212.069,267.960 212.600 M255.962 214.729 C 256.205 215.184,256.601 215.677,256.842 215.826 C 257.156 216.020,257.154 215.862,256.838 215.271 C 256.595 214.816,256.199 214.323,255.958 214.174 C 255.644 213.980,255.646 214.138,255.962 214.729 M125.246 217.239 C 125.001 217.943,124.813 218.718,124.828 218.960 C 124.844 219.202,125.114 218.696,125.430 217.835 C 125.745 216.974,125.933 216.200,125.848 216.115 C 125.762 216.029,125.492 216.535,125.246 217.239 M262.800 217.400 C 262.250 217.714,261.980 217.972,262.200 217.972 C 262.420 217.972,263.050 217.714,263.600 217.400 C 264.150 217.086,264.420 216.828,264.200 216.828 C 263.980 216.828,263.350 217.086,262.800 217.400 M258.809 218.967 C 259.030 219.190,259.533 219.172,260.087 218.923 C 260.937 218.540,260.912 218.514,259.722 218.556 C 258.948 218.582,258.587 218.745,258.809 218.967 M124.046 220.839 C 123.801 221.543,123.613 222.318,123.628 222.560 C 123.644 222.802,123.914 222.296,124.230 221.435 C 124.545 220.574,124.733 219.800,124.648 219.715 C 124.562 219.629,124.292 220.135,124.046 220.839 M117.147 223.675 C 118.106 224.765,122.207 227.140,122.527 226.790 C 122.622 226.686,122.822 226.150,122.969 225.600 C 123.216 224.682,123.199 224.665,122.760 225.400 C 122.497 225.840,122.227 226.267,122.159 226.349 C 121.985 226.559,118.397 224.459,117.200 223.446 L 116.200 222.600 117.147 223.675 M280.000 242.200 C 278.570 242.949,277.540 243.570,277.711 243.581 C 277.883 243.591,279.131 243.041,280.485 242.357 C 282.857 241.160,282.969 241.141,283.528 241.857 C 284.081 242.566,284.096 242.566,283.854 241.867 C 283.714 241.464,283.600 241.059,283.600 240.967 C 283.600 240.536,282.381 240.953,280.000 242.200 M275.800 244.214 C 274.795 244.698,274.763 244.753,275.600 244.551 C 276.150 244.419,276.771 244.150,276.980 243.955 C 277.498 243.471,277.214 243.533,275.800 244.214 M284.618 244.500 C 284.768 244.995,285.055 245.576,285.256 245.791 C 285.457 246.006,285.419 245.601,285.172 244.891 C 284.665 243.438,284.197 243.108,284.618 244.500 M273.239 245.800 C 273.245 246.240,273.691 247.500,274.230 248.600 C 275.259 250.698,275.198 250.321,273.969 247.000 C 273.562 245.900,273.233 245.360,273.239 245.800 M286.229 248.400 C 286.376 248.950,286.664 249.670,286.867 250.000 C 287.125 250.417,287.157 250.295,286.971 249.600 C 286.824 249.050,286.536 248.330,286.333 248.000 C 286.075 247.583,286.043 247.705,286.229 248.400 M275.429 251.600 C 275.576 252.150,275.864 252.870,276.067 253.200 C 276.325 253.617,276.357 253.495,276.171 252.800 C 276.024 252.250,275.736 251.530,275.533 251.200 C 275.275 250.783,275.243 250.905,275.429 251.600 M287.429 251.600 C 287.576 252.150,287.864 252.870,288.067 253.200 C 288.325 253.617,288.357 253.495,288.171 252.800 C 288.024 252.250,287.736 251.530,287.533 251.200 C 287.275 250.783,287.243 250.905,287.429 251.600 M107.250 257.500 C 107.277 260.085,107.429 263.460,107.587 265.000 C 107.746 266.540,107.784 264.484,107.672 260.432 C 107.475 253.293,107.493 253.074,108.234 253.370 C 109.832 254.010,110.166 254.034,109.200 253.442 C 107.284 252.267,107.196 252.449,107.250 257.500 M276.816 255.054 C 276.807 255.304,277.063 256.114,277.384 256.854 C 277.706 257.594,277.976 257.996,277.984 257.746 C 277.993 257.496,277.737 256.686,277.416 255.946 C 277.094 255.206,276.824 254.804,276.816 255.054 M289.029 256.000 C 289.176 256.550,289.464 257.270,289.667 257.600 C 289.925 258.017,289.957 257.895,289.771 257.200 C 289.624 256.650,289.336 255.930,289.133 255.600 C 288.875 255.183,288.843 255.305,289.029 256.000 M118.528 259.600 C 118.528 261.030,118.601 261.615,118.689 260.900 C 118.778 260.185,118.778 259.015,118.689 258.300 C 118.601 257.585,118.528 258.170,118.528 259.600 M278.463 259.800 C 278.462 260.020,278.703 260.830,279.000 261.600 C 279.297 262.370,279.545 262.730,279.552 262.400 C 279.558 262.070,279.317 261.260,279.014 260.600 C 278.712 259.940,278.464 259.580,278.463 259.800 M290.430 260.400 C 290.433 260.730,290.691 261.540,291.002 262.200 L 291.567 263.400 291.330 262.200 C 291.032 260.698,290.421 259.475,290.430 260.400 M279.663 263.400 C 279.662 263.620,279.903 264.430,280.200 265.200 C 280.497 265.970,280.745 266.330,280.752 266.000 C 280.758 265.670,280.517 264.860,280.214 264.200 C 279.912 263.540,279.664 263.180,279.663 263.400 M119.018 266.800 C 119.127 268.450,119.377 270.340,119.573 271.000 C 120.079 272.694,120.038 271.953,119.388 267.600 L 118.821 263.800 119.018 266.800 M292.250 266.400 C 292.390 267.170,292.661 268.160,292.854 268.600 C 293.094 269.149,293.124 268.961,292.950 268.000 C 292.810 267.230,292.539 266.240,292.346 265.800 C 292.106 265.251,292.076 265.439,292.250 266.400 M281.467 269.600 C 281.848 271.701,282.436 272.922,282.142 271.000 C 282.008 270.120,281.744 269.130,281.556 268.800 C 281.348 268.435,281.313 268.749,281.467 269.600 M293.243 270.000 C 293.228 270.330,293.466 271.500,293.772 272.600 C 294.078 273.700,294.341 274.330,294.357 274.000 C 294.372 273.670,294.134 272.500,293.828 271.400 C 293.522 270.300,293.259 269.670,293.243 270.000 M108.663 273.000 C 108.801 273.880,109.065 274.960,109.250 275.400 C 109.464 275.908,109.495 275.615,109.337 274.600 C 109.199 273.720,108.935 272.640,108.750 272.200 C 108.536 271.692,108.505 271.985,108.663 273.000 M283.069 275.800 C 283.457 278.227,284.034 279.772,283.741 277.600 C 283.607 276.610,283.344 275.440,283.155 275.000 C 282.935 274.484,282.904 274.769,283.069 275.800 M295.070 278.600 C 295.202 279.700,295.459 280.960,295.641 281.400 C 296.044 282.378,295.613 279.042,295.150 277.600 C 294.953 276.984,294.922 277.369,295.070 278.600 M121.600 278.146 C 121.600 278.622,122.748 281.200,122.959 281.200 C 123.069 281.200,122.879 280.525,122.538 279.700 C 121.896 278.151,121.600 277.661,121.600 278.146 M188.600 278.989 C 186.452 279.697,187.297 279.724,189.800 279.028 C 190.900 278.722,191.440 278.469,191.000 278.467 C 190.560 278.464,189.480 278.699,188.600 278.989 M200.000 278.733 C 200.330 278.936,201.050 279.224,201.600 279.371 C 202.295 279.557,202.417 279.525,202.000 279.267 C 201.670 279.064,200.950 278.776,200.400 278.629 C 199.705 278.443,199.583 278.475,200.000 278.733 M202.800 279.779 C 202.800 279.889,203.340 280.259,204.000 280.600 C 204.660 280.941,205.200 281.131,205.200 281.021 C 205.200 280.911,204.660 280.541,204.000 280.200 C 203.340 279.859,202.800 279.669,202.800 279.779 M184.000 280.400 C 183.467 280.745,183.467 280.788,184.000 280.788 C 184.330 280.788,184.870 280.613,185.200 280.400 C 185.733 280.055,185.733 280.012,185.200 280.012 C 184.870 280.012,184.330 280.187,184.000 280.400 M180.000 281.800 C 179.230 282.097,178.870 282.345,179.200 282.352 C 179.530 282.358,180.340 282.117,181.000 281.814 C 182.545 281.107,181.826 281.097,180.000 281.800 M123.755 282.604 C 124.067 283.267,125.069 284.617,125.983 285.604 L 127.645 287.400 125.923 285.164 C 124.975 283.934,123.972 282.584,123.694 282.164 C 123.404 281.725,123.430 281.912,123.755 282.604 M284.470 282.600 C 284.457 283.040,284.595 284.120,284.777 285.000 C 285.055 286.345,285.108 286.409,285.107 285.400 C 285.105 283.999,284.508 281.370,284.470 282.600 M175.600 283.434 C 174.290 283.970,174.277 283.992,175.400 283.775 C 176.060 283.648,176.771 283.376,176.980 283.172 C 177.459 282.703,177.321 282.729,175.600 283.434 M172.200 284.614 C 171.540 284.917,171.270 285.166,171.600 285.168 C 171.930 285.170,172.650 284.914,173.200 284.600 C 174.465 283.877,173.789 283.887,172.200 284.614 M210.000 284.133 C 210.000 284.243,210.720 284.903,211.600 285.600 C 212.480 286.297,213.200 286.777,213.200 286.667 C 213.200 286.557,212.480 285.897,211.600 285.200 C 210.720 284.503,210.000 284.023,210.000 284.133 M167.600 286.200 C 166.830 286.497,166.470 286.745,166.800 286.752 C 167.130 286.758,167.940 286.517,168.600 286.214 C 170.145 285.507,169.426 285.497,167.600 286.200 M296.687 290.200 C 296.807 292.400,296.971 294.275,297.053 294.367 C 297.331 294.681,297.141 289.800,296.805 288.000 C 296.575 286.770,296.538 287.466,296.687 290.200 M285.293 288.000 C 285.293 288.770,285.375 289.085,285.476 288.700 C 285.576 288.315,285.576 287.685,285.476 287.300 C 285.375 286.915,285.293 287.230,285.293 288.000 M162.800 287.800 C 162.030 288.097,161.670 288.345,162.000 288.352 C 162.330 288.358,163.140 288.117,163.800 287.814 C 165.345 287.107,164.626 287.097,162.800 287.800 M157.000 289.407 L 155.400 289.952 157.000 289.728 C 157.880 289.604,158.771 289.345,158.980 289.151 C 159.498 288.673,158.945 288.744,157.000 289.407 M193.264 289.273 C 192.309 289.487,191.608 289.741,191.706 289.839 C 191.803 289.937,192.790 289.822,193.898 289.585 C 195.523 289.236,196.191 289.269,197.356 289.756 C 198.150 290.088,198.800 290.269,198.800 290.159 C 198.800 289.868,196.115 288.793,195.513 288.843 C 195.231 288.866,194.219 289.060,193.264 289.273 M133.400 290.614 C 134.060 290.917,134.870 291.158,135.200 291.152 C 135.530 291.145,135.170 290.897,134.400 290.600 C 132.574 289.897,131.855 289.907,133.400 290.614 M217.703 290.241 C 217.852 290.483,219.907 292.373,222.271 294.441 C 224.634 296.508,226.434 297.982,226.270 297.716 C 226.107 297.450,224.051 295.560,221.702 293.516 C 219.353 291.472,217.553 289.998,217.703 290.241 M149.000 291.038 L 146.200 291.568 148.727 291.361 C 150.117 291.247,151.647 290.996,152.127 290.802 C 153.298 290.331,152.368 290.401,149.000 291.038 M187.800 291.014 C 186.800 291.496,186.766 291.551,187.600 291.348 C 188.733 291.071,190.007 290.421,189.400 290.430 C 189.180 290.433,188.460 290.696,187.800 291.014 M285.701 292.200 C 285.705 293.080,285.787 293.393,285.883 292.895 C 285.979 292.398,285.975 291.678,285.875 291.295 C 285.775 290.913,285.696 291.320,285.701 292.200 M141.305 291.887 C 141.914 291.979,142.814 291.977,143.305 291.882 C 143.797 291.787,143.300 291.711,142.200 291.714 C 141.100 291.717,140.697 291.795,141.305 291.887 M183.675 292.273 C 182.726 292.609,182.021 292.954,182.107 293.041 C 182.290 293.223,186.000 292.005,186.000 291.762 C 186.000 291.512,185.545 291.612,183.675 292.273 M201.374 291.958 C 201.523 292.199,202.016 292.595,202.471 292.838 C 203.062 293.154,203.220 293.156,203.026 292.842 C 202.877 292.601,202.384 292.205,201.929 291.962 C 201.338 291.646,201.180 291.644,201.374 291.958 M118.800 294.200 C 119.995 295.410,121.063 296.400,121.173 296.400 C 121.283 296.400,120.395 295.410,119.200 294.200 C 118.005 292.990,116.937 292.000,116.827 292.000 C 116.717 292.000,117.605 292.990,118.800 294.200 M179.800 293.814 C 178.800 294.296,178.766 294.351,179.600 294.148 C 180.733 293.871,182.007 293.221,181.400 293.230 C 181.180 293.233,180.460 293.496,179.800 293.814 M203.600 293.333 C 203.600 293.443,204.320 294.103,205.200 294.800 C 206.080 295.497,206.800 295.977,206.800 295.867 C 206.800 295.757,206.080 295.097,205.200 294.400 C 204.320 293.703,203.600 293.223,203.600 293.333 M286.089 300.244 C 286.040 303.788,285.915 307.568,285.811 308.644 L 285.622 310.600 286.021 308.696 C 286.240 307.649,286.366 303.869,286.299 300.296 L 286.179 293.800 286.089 300.244 M175.400 295.414 C 174.400 295.896,174.366 295.951,175.200 295.748 C 176.333 295.471,177.607 294.821,177.000 294.830 C 176.780 294.833,176.060 295.096,175.400 295.414 M297.320 296.800 C 297.320 298.010,297.395 298.505,297.487 297.900 C 297.578 297.295,297.578 296.305,297.487 295.700 C 297.395 295.095,297.320 295.590,297.320 296.800 M171.275 296.673 C 170.326 297.009,169.621 297.354,169.707 297.441 C 169.890 297.623,173.600 296.405,173.600 296.162 C 173.600 295.912,173.145 296.012,171.275 296.673 M124.000 298.364 C 124.550 298.814,125.180 299.183,125.400 299.185 C 125.828 299.188,125.105 298.634,123.800 297.960 C 123.269 297.685,123.336 297.821,124.000 298.364 M211.592 299.937 C 213.018 301.263,214.252 302.282,214.334 302.199 C 214.494 302.040,212.704 300.409,210.400 298.615 C 209.630 298.015,210.166 298.610,211.592 299.937 M166.200 298.400 C 165.696 298.617,165.622 298.744,166.000 298.744 C 166.330 298.744,166.960 298.589,167.400 298.400 C 167.904 298.183,167.978 298.056,167.600 298.056 C 167.270 298.056,166.640 298.211,166.200 298.400 M228.000 299.400 C 228.746 300.170,229.447 300.800,229.557 300.800 C 229.667 300.800,229.146 300.170,228.400 299.400 C 227.654 298.630,226.953 298.000,226.843 298.000 C 226.733 298.000,227.254 298.630,228.000 299.400 M160.600 300.000 C 160.096 300.217,160.022 300.344,160.400 300.344 C 160.730 300.344,161.360 300.189,161.800 300.000 C 162.304 299.783,162.378 299.656,162.000 299.656 C 161.670 299.656,161.040 299.811,160.600 300.000 M154.845 301.232 C 153.879 301.422,152.979 301.693,152.845 301.834 C 152.542 302.152,155.902 301.618,157.000 301.174 C 158.022 300.761,157.121 300.785,154.845 301.232 M231.200 302.200 C 231.946 302.970,232.647 303.600,232.757 303.600 C 232.867 303.600,232.346 302.970,231.600 302.200 C 230.854 301.430,230.153 300.800,230.043 300.800 C 229.933 300.800,230.454 301.430,231.200 302.200 M136.500 302.687 C 137.105 302.778,138.095 302.778,138.700 302.687 C 139.305 302.595,138.810 302.520,137.600 302.520 C 136.390 302.520,135.895 302.595,136.500 302.687 M142.200 302.800 L 139.800 303.066 141.800 303.083 C 142.900 303.093,145.060 302.971,146.600 302.813 L 149.400 302.526 147.000 302.530 C 145.680 302.533,143.520 302.654,142.200 302.800 M215.973 303.695 C 216.728 304.516,217.433 305.101,217.539 304.994 C 217.646 304.887,217.657 304.755,217.565 304.700 C 217.472 304.645,216.767 304.060,215.998 303.401 L 214.600 302.202 215.973 303.695 M297.320 304.800 C 297.320 306.010,297.395 306.505,297.487 305.900 C 297.578 305.295,297.578 304.305,297.487 303.700 C 297.395 303.095,297.320 303.590,297.320 304.800 M235.117 305.721 C 237.877 308.243,241.600 311.328,241.600 311.093 C 241.600 310.853,233.701 304.000,233.423 304.000 C 233.319 304.000,234.082 304.774,235.117 305.721 M219.173 306.495 C 219.928 307.316,220.633 307.901,220.739 307.794 C 220.846 307.687,220.857 307.555,220.765 307.500 C 220.672 307.445,219.967 306.860,219.198 306.201 L 217.800 305.002 219.173 306.495 M296.673 310.560 C 296.515 312.518,296.463 314.196,296.556 314.289 C 296.803 314.536,297.312 308.663,297.122 307.762 C 297.033 307.343,296.831 308.602,296.673 310.560 M222.773 309.695 C 223.528 310.516,224.233 311.101,224.339 310.994 C 224.446 310.887,224.457 310.755,224.365 310.700 C 224.272 310.645,223.567 310.060,222.798 309.401 L 221.400 308.202 222.773 309.695 M225.373 311.923 C 225.798 312.418,227.778 314.183,229.773 315.845 C 231.768 317.507,232.500 318.029,231.400 317.005 C 228.261 314.082,224.520 310.929,225.373 311.923 M242.400 311.777 C 242.400 312.152,253.124 320.574,255.100 321.750 C 256.311 322.470,255.433 321.617,253.700 320.389 C 252.655 319.648,249.685 317.366,247.100 315.318 C 244.515 313.269,242.400 311.676,242.400 311.777 M284.849 314.600 C 284.816 315.040,284.696 315.850,284.583 316.400 L 284.377 317.400 284.806 316.419 C 285.042 315.879,285.161 315.069,285.072 314.619 C 284.913 313.821,284.907 313.821,284.849 314.600 M295.233 319.433 C 294.975 320.459,294.839 321.372,294.931 321.464 C 295.022 321.556,295.309 320.792,295.567 319.767 C 295.825 318.741,295.961 317.828,295.869 317.736 C 295.778 317.644,295.491 318.408,295.233 319.433 M233.753 319.124 C 234.090 319.670,240.000 324.530,240.000 324.262 C 240.000 324.157,238.532 322.857,236.737 321.372 C 234.943 319.888,233.600 318.876,233.753 319.124 M283.280 320.680 C 283.030 321.494,282.892 322.226,282.973 322.306 C 283.054 322.387,283.336 321.799,283.600 321.000 C 283.864 320.201,284.002 319.469,283.907 319.374 C 283.812 319.278,283.530 319.866,283.280 320.680 M256.304 322.485 C 256.776 323.053,260.000 324.973,260.000 324.685 C 260.000 324.594,259.067 323.940,257.927 323.231 C 256.787 322.522,256.057 322.187,256.304 322.485 M281.409 325.036 C 280.993 325.808,279.965 327.061,279.125 327.820 C 278.285 328.579,277.755 329.200,277.948 329.200 C 278.750 329.200,282.759 324.225,282.315 323.782 C 282.232 323.699,281.825 324.264,281.409 325.036 M293.644 324.844 C 293.398 325.551,293.266 326.200,293.352 326.285 C 293.438 326.371,293.709 325.862,293.956 325.156 C 294.202 324.449,294.334 323.800,294.248 323.715 C 294.162 323.629,293.891 324.138,293.644 324.844 M241.800 325.768 C 242.460 326.335,243.810 327.354,244.800 328.032 C 246.183 328.978,246.322 329.025,245.400 328.232 C 244.740 327.665,243.390 326.646,242.400 325.968 C 241.017 325.022,240.878 324.975,241.800 325.768 M292.390 328.024 C 291.452 330.289,288.803 334.042,286.685 336.107 C 284.998 337.750,284.893 337.920,286.132 336.997 C 288.605 335.156,293.790 327.656,293.081 326.947 C 292.986 326.852,292.675 327.336,292.390 328.024 M270.537 329.694 C 271.147 330.081,276.700 330.086,276.937 329.700 C 277.039 329.535,275.536 329.400,273.598 329.400 C 271.660 329.400,270.282 329.532,270.537 329.694 M259.600 337.400 C 260.150 337.714,260.780 337.972,261.000 337.972 C 261.220 337.972,260.950 337.714,260.400 337.400 C 259.850 337.086,259.220 336.828,259.000 336.828 C 258.780 336.828,259.050 337.086,259.600 337.400 M283.100 338.629 C 282.495 338.957,282.000 339.310,282.000 339.413 C 282.000 339.799,282.632 339.557,283.600 338.800 C 284.789 337.870,284.611 337.809,283.100 338.629 M262.800 338.733 C 263.130 338.936,263.850 339.224,264.400 339.371 C 265.095 339.557,265.217 339.525,264.800 339.267 C 264.470 339.064,263.750 338.776,263.200 338.629 C 262.505 338.443,262.383 338.475,262.800 338.733 M268.600 340.590 C 269.700 340.883,270.960 341.129,271.400 341.136 L 272.200 341.149 271.400 340.830 C 270.960 340.655,269.700 340.409,268.600 340.284 L 266.600 340.056 268.600 340.590 M277.600 340.512 C 276.610 340.746,276.070 341.000,276.400 341.076 C 276.730 341.152,277.810 340.958,278.800 340.646 C 280.912 339.981,280.186 339.900,277.600 340.512 " stroke="none" fill="#7c7c7c" fill-rule="evenodd"></path></g></svg>